<svg width="211" height="130" viewBox="0 0 211 130" fill="none" xmlns="http://www.w3.org/2000/svg">
<path d="M52.0625 107.551C52.0625 107.762 52.0273 107.941 51.957 108.09C51.8945 108.238 51.8086 108.371 51.6992 108.488C51.5977 108.605 51.4766 108.715 51.3359 108.816C51.2031 108.918 51.0664 109.027 50.9258 109.145C50.8164 109.238 50.7188 109.309 50.6328 109.355C50.5469 109.402 50.4609 109.441 50.375 109.473C50.2969 109.504 50.2109 109.535 50.1172 109.566C50.0312 109.598 49.9297 109.641 49.8125 109.695C49.6562 109.773 49.5234 109.848 49.4141 109.918C49.3125 109.98 49.207 110.039 49.0977 110.094C48.9961 110.148 48.8828 110.191 48.7578 110.223C48.6328 110.262 48.4766 110.293 48.2891 110.316C47.9766 110.355 47.6602 110.402 47.3398 110.457C47.0273 110.512 46.7148 110.539 46.4023 110.539C46.3398 110.539 46.2734 110.523 46.2031 110.492C46.1406 110.469 46.0664 110.441 45.9805 110.41C45.8945 110.387 45.7969 110.359 45.6875 110.328C45.5859 110.305 45.4609 110.293 45.3125 110.293C45.1562 110.293 45.0312 110.27 44.9375 110.223C44.8438 110.176 44.7578 110.121 44.6797 110.059C44.6094 109.996 44.5352 109.93 44.457 109.859C44.3789 109.781 44.2773 109.715 44.1523 109.66C43.6836 109.449 43.2852 109.195 42.957 108.898C42.6289 108.602 42.3477 108.27 42.1133 107.902C41.8789 107.535 41.6836 107.137 41.5273 106.707C41.3711 106.277 41.2383 105.828 41.1289 105.359C41.043 105.031 41 104.703 41 104.375C41 103.945 41.1016 103.547 41.3047 103.18C41.2266 102.961 41.1875 102.75 41.1875 102.547C41.1875 102.398 41.2305 102.18 41.3164 101.891C41.4023 101.594 41.5117 101.297 41.6445 101C41.7852 100.703 41.9336 100.438 42.0898 100.203C42.2539 99.9609 42.4062 99.8125 42.5469 99.7578C42.6562 99.7188 42.7305 99.6875 42.7695 99.6641C42.8164 99.6328 42.8398 99.5547 42.8398 99.4297C42.8398 99.3359 42.875 99.2578 42.9453 99.1953C43.0234 99.1328 43.1133 99.082 43.2148 99.043C43.3242 99.0039 43.4297 98.9688 43.5312 98.9375C43.6406 98.9062 43.7305 98.875 43.8008 98.8438C44.0898 98.7031 44.3633 98.5859 44.6211 98.4922C44.8867 98.3906 45.1484 98.3086 45.4062 98.2461C45.6719 98.1758 45.9453 98.125 46.2266 98.0938C46.5078 98.0625 46.8086 98.0469 47.1289 98.0469C47.3008 98.0469 47.4688 98.0703 47.6328 98.1172C47.7969 98.1641 47.9531 98.2266 48.1016 98.3047C48.2578 98.375 48.4102 98.457 48.5586 98.5508C48.707 98.6367 48.8516 98.7227 48.9922 98.8086H48.9805C49.0977 98.8242 49.207 98.8594 49.3086 98.9141C49.418 98.9609 49.5312 98.9922 49.6484 99.0078C49.7578 99.1406 49.8984 99.2695 50.0703 99.3945C50.25 99.5117 50.4219 99.6367 50.5859 99.7695C50.7578 99.9023 50.9023 100.047 51.0195 100.203C51.1445 100.352 51.207 100.523 51.207 100.719C51.207 100.75 51.2031 100.781 51.1953 100.812C51.1953 100.844 51.1914 100.879 51.1836 100.918L51.2305 100.859C51.2617 100.883 51.2891 100.922 51.3125 100.977C51.3438 101.031 51.3711 101.094 51.3945 101.164C51.418 101.227 51.4375 101.293 51.4531 101.363C51.4688 101.426 51.4805 101.477 51.4883 101.516C51.5508 101.617 51.6328 101.699 51.7344 101.762C51.8438 101.824 51.9297 101.91 51.9922 102.02C51.9141 102.098 51.875 102.199 51.875 102.324C51.875 102.457 51.9023 102.59 51.957 102.723C52.0117 102.848 52.0391 102.977 52.0391 103.109C52.0391 103.266 52.0312 103.418 52.0156 103.566C52 103.707 51.9922 103.855 51.9922 104.012C51.9922 104.129 51.9453 104.219 51.8516 104.281C51.7656 104.344 51.668 104.398 51.5586 104.445C51.457 104.492 51.3633 104.539 51.2773 104.586C51.1914 104.633 51.1484 104.699 51.1484 104.785C51.1484 104.848 51.1094 104.879 51.0312 104.879C50.9609 104.871 50.9023 104.867 50.8555 104.867C50.5117 104.867 50.168 104.824 49.8242 104.738C49.4883 104.652 49.1523 104.609 48.8164 104.609C48.4492 104.609 48.0859 104.637 47.7266 104.691C47.3672 104.738 47.0039 104.762 46.6367 104.762C46.3633 104.762 46.0898 104.754 45.8164 104.738C45.5508 104.723 45.2812 104.715 45.0078 104.715C44.9375 104.715 44.8047 104.73 44.6094 104.762C44.4141 104.785 44.207 104.82 43.9883 104.867C43.7773 104.906 43.5742 104.957 43.3789 105.02C43.1836 105.074 43.0469 105.129 42.9688 105.184C42.9609 105.223 42.957 105.277 42.957 105.348C42.957 105.715 43.0625 106.094 43.2734 106.484C43.4922 106.875 43.7773 107.23 44.1289 107.551C44.4805 107.871 44.875 108.137 45.3125 108.348C45.75 108.559 46.1914 108.664 46.6367 108.664C46.8945 108.664 47.1484 108.676 47.3984 108.699C47.6562 108.715 47.9062 108.77 48.1484 108.863C48.3594 108.762 48.5508 108.645 48.7227 108.512C48.9023 108.379 49.0742 108.238 49.2383 108.09C49.4023 107.941 49.5625 107.789 49.7188 107.633C49.875 107.477 50.0352 107.32 50.1992 107.164C50.2305 107.133 50.3047 107.105 50.4219 107.082C50.5469 107.051 50.6797 107.027 50.8203 107.012C50.9609 106.988 51.0938 106.973 51.2188 106.965C51.3516 106.949 51.4414 106.941 51.4883 106.941C51.668 106.941 51.8359 106.969 51.9922 107.023C52.0391 107.203 52.0625 107.379 52.0625 107.551ZM50.3047 102.793C50.3047 102.676 50.2852 102.562 50.2461 102.453C50.207 102.344 50.1758 102.23 50.1523 102.113C50.1133 101.895 50.0938 101.684 50.0938 101.48C50.0938 101.27 50.0625 101.059 50 100.848H49.9883C49.9883 100.895 49.9727 100.941 49.9414 100.988C49.9102 101.027 49.8672 101.047 49.8125 101.047C49.7188 101.047 49.6289 101.023 49.543 100.977C49.457 100.93 49.3828 100.871 49.3203 100.801C49.0234 100.668 48.7539 100.543 48.5117 100.426C48.2773 100.309 48.0391 100.207 47.7969 100.121C47.5625 100.027 47.3086 99.957 47.0352 99.9102C46.7695 99.8555 46.4609 99.8281 46.1094 99.8281C46.0781 99.8281 46.0469 99.832 46.0156 99.8398C45.9922 99.8398 45.9688 99.8516 45.9453 99.875L46.0039 100.004L45.9102 100.027C45.6992 100.066 45.5234 100.105 45.3828 100.145C45.25 100.176 45.1289 100.223 45.0195 100.285C44.9102 100.348 44.8008 100.426 44.6914 100.52C44.5898 100.605 44.457 100.719 44.293 100.859C44.2148 100.93 44.1289 100.984 44.0352 101.023C43.9492 101.055 43.8594 101.086 43.7656 101.117C43.6797 101.141 43.5938 101.168 43.5078 101.199C43.4297 101.23 43.3633 101.281 43.3086 101.352C43.2539 101.547 43.1719 101.738 43.0625 101.926C42.9609 102.105 42.9102 102.297 42.9102 102.5C42.9102 102.617 42.957 102.723 43.0508 102.816C43.1523 102.902 43.2773 102.977 43.4258 103.039C43.582 103.102 43.75 103.156 43.9297 103.203C44.1172 103.25 44.3008 103.285 44.4805 103.309C44.6602 103.332 44.8242 103.352 44.9727 103.367C45.1289 103.375 45.25 103.379 45.3359 103.379C45.6328 103.379 45.9258 103.352 46.2148 103.297C46.5039 103.234 46.7969 103.203 47.0938 103.203C47.3984 103.203 47.7031 103.219 48.0078 103.25C48.3125 103.273 48.6172 103.285 48.9219 103.285C49 103.285 49.1172 103.281 49.2734 103.273C49.4297 103.266 49.582 103.246 49.7305 103.215C49.8867 103.176 50.0195 103.125 50.1289 103.062C50.2461 102.992 50.3047 102.902 50.3047 102.793ZM68.2812 99.3125C68.2812 99.4688 68.25 99.6133 68.1875 99.7461C68.125 99.8711 68.0938 100.004 68.0938 100.145C68.0938 100.176 68.0938 100.203 68.0938 100.227C68.1016 100.25 68.1094 100.277 68.1172 100.309H68.0117H67.9414C67.7617 100.309 67.5859 100.352 67.4141 100.438C67.2422 100.516 67.0625 100.555 66.875 100.555C66.6797 100.555 66.5352 100.473 66.4414 100.309C66.332 100.332 66.1992 100.371 66.043 100.426C65.8945 100.473 65.7383 100.527 65.5742 100.59C65.418 100.652 65.2656 100.719 65.1172 100.789C64.9766 100.859 64.8633 100.922 64.7773 100.977L64.6133 101.316C64.3867 101.418 64.1875 101.562 64.0156 101.75C63.8516 101.93 63.7695 102.148 63.7695 102.406V102.488C63.6289 102.504 63.5156 102.562 63.4297 102.664C63.3438 102.758 63.2656 102.867 63.1953 102.992C63.125 103.117 63.0547 103.234 62.9844 103.344C62.9219 103.453 62.8477 103.527 62.7617 103.566C62.6055 103.637 62.5039 103.75 62.457 103.906C62.418 104.055 62.3984 104.207 62.3984 104.363C62.3984 104.613 62.4297 104.875 62.4922 105.148C62.5469 105.383 62.6484 105.613 62.7969 105.84C62.9531 106.066 63.1289 106.281 63.3242 106.484C63.5195 106.688 63.7227 106.883 63.9336 107.07C64.1523 107.258 64.3477 107.43 64.5195 107.586C64.5977 107.656 64.6719 107.738 64.7422 107.832C64.8125 107.918 64.8867 108 64.9648 108.078C65.043 108.148 65.1289 108.211 65.2227 108.266C65.3164 108.312 65.4219 108.336 65.5391 108.336H65.5859H65.6914H65.7617C65.957 108.336 66.1406 108.363 66.3125 108.418C66.4922 108.473 66.6836 108.5 66.8867 108.5C66.9492 108.5 67.0195 108.504 67.0977 108.512C67.1836 108.512 67.2656 108.52 67.3438 108.535C67.4219 108.551 67.4922 108.578 67.5547 108.617C67.625 108.656 67.6719 108.711 67.6953 108.781C67.7031 108.812 67.7109 108.855 67.7188 108.91C67.7344 108.957 67.75 109.004 67.7656 109.051C67.7891 109.098 67.8125 109.141 67.8359 109.18C67.8672 109.211 67.9062 109.227 67.9531 109.227C67.9766 109.227 68.0039 109.223 68.0352 109.215C68.0664 109.199 68.0938 109.184 68.1172 109.168C68.0781 109.23 68.0547 109.297 68.0469 109.367C68.0391 109.438 68.0352 109.508 68.0352 109.578C68.0352 109.68 68.0391 109.777 68.0469 109.871C68.0625 109.965 68.0703 110.062 68.0703 110.164C68.0703 110.203 68.0664 110.25 68.0586 110.305C68.0586 110.367 68.0469 110.426 68.0234 110.48C68.0078 110.543 67.9844 110.594 67.9531 110.633C67.9219 110.68 67.8789 110.703 67.8242 110.703C67.7383 110.703 67.6523 110.68 67.5664 110.633C67.4883 110.586 67.4062 110.562 67.3203 110.562C67.2734 110.562 67.2266 110.582 67.1797 110.621C67.1406 110.66 67.0859 110.699 67.0156 110.738C66.9531 110.785 66.8672 110.828 66.7578 110.867C66.6484 110.906 66.5 110.926 66.3125 110.926C66.1328 110.926 65.9531 110.91 65.7734 110.879C65.6016 110.855 65.4258 110.824 65.2461 110.785C65.0664 110.754 64.8867 110.723 64.707 110.691C64.5352 110.66 64.3594 110.645 64.1797 110.645C63.9922 110.645 63.8086 110.676 63.6289 110.738C63.4492 110.809 63.2656 110.844 63.0781 110.844C62.9766 110.844 62.8867 110.816 62.8086 110.762C62.7305 110.715 62.6562 110.66 62.5859 110.598C62.5156 110.543 62.4414 110.488 62.3633 110.434C62.293 110.379 62.207 110.344 62.1055 110.328C61.957 110.312 61.8477 110.27 61.7773 110.199C61.7148 110.137 61.6836 110.027 61.6836 109.871C61.6836 109.691 61.7148 109.52 61.7773 109.355C61.8477 109.191 61.918 109.035 61.9883 108.887C62.0664 108.73 62.1367 108.578 62.1992 108.43C62.2695 108.281 62.3047 108.137 62.3047 107.996C62.3047 107.902 62.293 107.805 62.2695 107.703C62.2539 107.602 62.2266 107.512 62.1875 107.434C62.1484 107.348 62.0938 107.277 62.0234 107.223C61.9531 107.168 61.8672 107.141 61.7656 107.141C61.7344 107.141 61.6797 107.148 61.6016 107.164C61.5547 107.109 61.5117 107.035 61.4727 106.941C61.4414 106.848 61.4023 106.762 61.3555 106.684C61.3164 106.598 61.2656 106.523 61.2031 106.461C61.1406 106.398 61.0625 106.367 60.9688 106.367C60.8672 106.367 60.7773 106.418 60.6992 106.52C60.6211 106.613 60.5508 106.723 60.4883 106.848C60.4258 106.965 60.3633 107.074 60.3008 107.176C60.2383 107.277 60.1719 107.328 60.1016 107.328C60 107.422 59.8867 107.535 59.7617 107.668C59.6367 107.801 59.5742 107.945 59.5742 108.102C59.5742 108.195 59.6055 108.297 59.668 108.406C59.7383 108.508 59.8125 108.617 59.8906 108.734C59.9688 108.852 60.0391 108.973 60.1016 109.098C60.1719 109.215 60.207 109.336 60.207 109.461C60.207 109.5 60.2031 109.555 60.1953 109.625C60.1953 109.688 60.1875 109.754 60.1719 109.824C60.1562 109.895 60.1367 109.957 60.1133 110.012C60.0898 110.074 60.0586 110.117 60.0195 110.141C59.9727 110.172 59.9141 110.191 59.8438 110.199C59.7812 110.207 59.7188 110.215 59.6562 110.223C59.5938 110.238 59.5391 110.258 59.4922 110.281C59.4453 110.312 59.4219 110.367 59.4219 110.445C59.4219 110.453 59.4219 110.461 59.4219 110.469C59.4297 110.477 59.4336 110.488 59.4336 110.504C59.3789 110.457 59.2891 110.43 59.1641 110.422C59.0391 110.414 58.9453 110.41 58.8828 110.41C58.3672 110.41 57.8516 110.434 57.3359 110.48C56.8281 110.535 56.3164 110.562 55.8008 110.562C55.668 110.562 55.4961 110.559 55.2852 110.551C55.0742 110.543 54.8633 110.512 54.6523 110.457C54.4492 110.41 54.2734 110.332 54.125 110.223C53.9766 110.121 53.9023 109.977 53.9023 109.789C53.9023 109.703 53.9141 109.617 53.9375 109.531C53.9688 109.445 54.0039 109.363 54.043 109.285C54.1367 109.105 54.2617 108.969 54.418 108.875C54.582 108.781 54.7539 108.715 54.9336 108.676C55.1211 108.637 55.3125 108.617 55.5078 108.617C55.7031 108.609 55.8867 108.602 56.0586 108.594C56.2305 108.586 56.3789 108.574 56.5039 108.559C56.6367 108.535 56.7305 108.484 56.7852 108.406C56.9492 108.188 57.0938 107.969 57.2188 107.75C57.3516 107.531 57.4922 107.328 57.6406 107.141C57.7969 106.945 57.9766 106.777 58.1797 106.637C58.3828 106.488 58.6328 106.383 58.9297 106.32C58.9844 106.211 59.0234 106.113 59.0469 106.027C59.0781 105.941 59.1055 105.859 59.1289 105.781C59.1602 105.703 59.1953 105.625 59.2344 105.547C59.2812 105.469 59.3555 105.383 59.457 105.289C59.543 105.211 59.6016 105.125 59.6328 105.031C59.6641 104.938 59.6797 104.836 59.6797 104.727C59.6797 104.609 59.6602 104.488 59.6211 104.363C59.5898 104.23 59.543 104.109 59.4805 104C59.418 103.883 59.3398 103.781 59.2461 103.695C59.1523 103.602 59.0469 103.531 58.9297 103.484V103.426V103.402C58.9297 103.316 58.957 103.246 59.0117 103.191C59.0664 103.137 59.0938 103.066 59.0938 102.98C58.9688 102.879 58.832 102.801 58.6836 102.746C58.5352 102.684 58.3945 102.598 58.2617 102.488C58.1523 102.402 58.0664 102.293 58.0039 102.16C57.9414 102.027 57.8555 101.914 57.7461 101.82C57.543 101.648 57.3438 101.477 57.1484 101.305C56.9609 101.125 56.832 100.906 56.7617 100.648C56.7148 100.664 56.6758 100.672 56.6445 100.672C56.4961 100.672 56.3477 100.633 56.1992 100.555C56.0508 100.469 55.9062 100.406 55.7656 100.367C55.6094 100.32 55.3984 100.277 55.1328 100.238C54.875 100.199 54.6172 100.145 54.3594 100.074C54.1094 99.9961 53.8906 99.8906 53.7031 99.7578C53.5234 99.6172 53.4336 99.4258 53.4336 99.1836C53.4336 99.0273 53.5273 98.9102 53.7148 98.832C53.9023 98.7461 54.1172 98.6875 54.3594 98.6562C54.6094 98.625 54.8516 98.6094 55.0859 98.6094C55.3281 98.6094 55.5039 98.6094 55.6133 98.6094C55.7148 98.6094 55.8008 98.6211 55.8711 98.6445C55.9414 98.668 56 98.6953 56.0469 98.7266C56.0938 98.75 56.1289 98.7734 56.1523 98.7969C56.1758 98.8203 56.1992 98.832 56.2227 98.832C56.2617 98.832 56.2812 98.8047 56.2812 98.75C56.2891 98.6953 56.3359 98.6602 56.4219 98.6445C56.6016 98.6133 56.793 98.5938 56.9961 98.5859C57.207 98.5703 57.4023 98.5625 57.582 98.5625C57.7461 98.5625 57.9023 98.5938 58.0508 98.6562C58.1992 98.7109 58.3555 98.7383 58.5195 98.7383C58.6602 98.7383 58.8008 98.7266 58.9414 98.7031C59.0898 98.6797 59.2344 98.668 59.375 98.668C59.5859 98.668 59.7773 98.7344 59.9492 98.8672C60.1289 98.9922 60.2188 99.1719 60.2188 99.4062C60.2188 99.5547 60.1719 99.6914 60.0781 99.8164C59.9844 99.9336 59.8789 100.055 59.7617 100.18C59.6445 100.297 59.5391 100.422 59.4453 100.555C59.3516 100.68 59.3047 100.824 59.3047 100.988C59.3047 101.113 59.3672 101.27 59.4922 101.457C59.6172 101.637 59.7656 101.812 59.9375 101.984C60.1094 102.148 60.2852 102.293 60.4648 102.418C60.6523 102.535 60.8047 102.594 60.9219 102.594C61.0469 102.594 61.1992 102.527 61.3789 102.395C61.5664 102.254 61.7461 102.094 61.918 101.914C62.0898 101.727 62.2344 101.539 62.3516 101.352C62.4766 101.156 62.5391 101.004 62.5391 100.895C62.5391 100.801 62.5039 100.711 62.4336 100.625C62.3711 100.531 62.3008 100.438 62.2227 100.344C62.1445 100.25 62.0703 100.148 62 100.039C61.9375 99.9219 61.9062 99.7891 61.9062 99.6406C61.9062 99.3984 61.9844 99.2031 62.1406 99.0547C62.3047 98.8984 62.5 98.7773 62.7266 98.6914C62.9531 98.5977 63.1914 98.5352 63.4414 98.5039C63.6914 98.4648 63.9062 98.4453 64.0859 98.4453C64.2734 98.4453 64.4375 98.4648 64.5781 98.5039C64.7188 98.5352 64.8477 98.5742 64.9648 98.6211C65.0898 98.668 65.2031 98.7109 65.3047 98.75C65.4141 98.7812 65.5273 98.7969 65.6445 98.7969C65.793 98.7969 65.9453 98.7812 66.1016 98.75C66.2578 98.7188 66.3984 98.6875 66.5234 98.6562C66.6562 98.6172 66.7656 98.582 66.8516 98.5508C66.9375 98.5195 66.9883 98.5039 67.0039 98.5039C67.1055 98.5039 67.2109 98.5312 67.3203 98.5859C67.4375 98.6328 67.5508 98.6953 67.6602 98.7734C67.7773 98.8516 67.8828 98.9375 67.9766 99.0312C68.0781 99.1172 68.168 99.1953 68.2461 99.2656L68.2812 99.3125ZM82.0742 104.293C82.0742 104.629 82.0391 104.957 81.9688 105.277C81.8984 105.598 81.8398 105.922 81.793 106.25C81.7773 106.359 81.7656 106.461 81.7578 106.555C81.7578 106.641 81.75 106.727 81.7344 106.812C81.7188 106.891 81.6914 106.973 81.6523 107.059C81.6133 107.137 81.5547 107.219 81.4766 107.305C81.375 107.414 81.3047 107.531 81.2656 107.656C81.2266 107.773 81.1875 107.898 81.1484 108.031C81.1016 108.164 81.0469 108.266 80.9844 108.336C80.9297 108.398 80.8672 108.453 80.7969 108.5C80.7344 108.547 80.6641 108.594 80.5859 108.641C80.5156 108.68 80.4414 108.742 80.3633 108.828C80.3164 108.883 80.2852 108.938 80.2695 108.992C80.2617 109.047 80.2539 109.102 80.2461 109.156C80.2383 109.203 80.2188 109.25 80.1875 109.297C80.1641 109.344 80.1133 109.383 80.0352 109.414C79.9102 109.469 79.8203 109.531 79.7656 109.602C79.7109 109.664 79.6406 109.738 79.5547 109.824C79.4688 109.91 79.3555 109.992 79.2148 110.07C79.082 110.156 78.9375 110.23 78.7812 110.293C78.6328 110.355 78.4805 110.406 78.3242 110.445C78.168 110.484 78.0312 110.504 77.9141 110.504C77.7656 110.504 77.6172 110.488 77.4688 110.457C77.3281 110.426 77.1836 110.41 77.0352 110.41C76.9492 110.41 76.8828 110.422 76.8359 110.445C76.7969 110.477 76.7617 110.508 76.7305 110.539C76.6992 110.57 76.6641 110.598 76.625 110.621C76.5938 110.652 76.543 110.668 76.4727 110.668C76.3398 110.668 76.1445 110.613 75.8867 110.504C75.6289 110.402 75.3555 110.285 75.0664 110.152C74.7852 110.027 74.5117 109.914 74.2461 109.812C73.9805 109.703 73.7773 109.648 73.6367 109.648C73.5117 109.648 73.4102 109.695 73.332 109.789C73.2617 109.875 73.2031 109.984 73.1562 110.117C73.1094 110.258 73.0742 110.406 73.0508 110.562C73.0352 110.727 73.0234 110.879 73.0156 111.02C73.0156 111.16 73.0156 111.277 73.0156 111.371C73.0234 111.465 73.0273 111.512 73.0273 111.512C73.0273 111.59 73.0117 111.641 72.9805 111.664C72.957 111.688 72.9219 111.699 72.875 111.699C72.8438 111.699 72.8125 111.695 72.7812 111.688C72.75 111.688 72.7148 111.684 72.6758 111.676C72.6758 111.77 72.6914 111.871 72.7227 111.98C72.7617 112.09 72.8047 112.203 72.8516 112.32C72.9062 112.445 72.957 112.566 73.0039 112.684C73.0508 112.801 73.0859 112.91 73.1094 113.012C73.1641 113.262 73.2188 113.441 73.2734 113.551C73.3359 113.66 73.4141 113.734 73.5078 113.773C73.6016 113.812 73.7188 113.828 73.8594 113.82C74 113.82 74.1797 113.832 74.3984 113.855C74.5 113.871 74.6094 113.891 74.7266 113.914C74.8438 113.945 74.9492 113.988 75.043 114.043C75.1367 114.105 75.2148 114.18 75.2773 114.266C75.3398 114.352 75.3711 114.457 75.3711 114.582C75.3711 114.84 75.293 115.023 75.1367 115.133C74.9883 115.242 74.7969 115.297 74.5625 115.297C74.2422 115.297 73.9219 115.273 73.6016 115.227C73.2891 115.18 72.9688 115.156 72.6406 115.156C72.2969 115.156 71.9531 115.176 71.6094 115.215C71.2734 115.254 70.9375 115.273 70.6016 115.273C70.5156 115.273 70.3945 115.258 70.2383 115.227C70.0898 115.195 69.9375 115.148 69.7812 115.086C69.6328 115.031 69.5 114.961 69.3828 114.875C69.2734 114.797 69.2188 114.707 69.2188 114.605C69.2188 114.535 69.2578 114.465 69.3359 114.395C69.4219 114.332 69.5156 114.277 69.6172 114.23C69.7266 114.184 69.8359 114.145 69.9453 114.113C70.0547 114.09 70.1406 114.078 70.2031 114.078C70.3438 114.078 70.4727 114.055 70.5898 114.008C70.7148 113.969 70.8359 113.926 70.9531 113.879C71.0703 113.832 71.1875 113.785 71.3047 113.738C71.4219 113.699 71.5469 113.68 71.6797 113.68C71.75 113.383 71.793 113.086 71.8086 112.789C71.832 112.492 71.8438 112.195 71.8438 111.898C71.8438 111.688 71.8398 111.477 71.832 111.266C71.832 111.055 71.832 110.844 71.832 110.633C71.832 110.219 71.8594 109.809 71.9141 109.402C71.9766 108.996 72.0078 108.582 72.0078 108.16C72.0078 107.902 71.9961 107.645 71.9727 107.387C71.957 107.129 71.9414 106.871 71.9258 106.613C71.9023 106.582 71.875 106.48 71.8438 106.309C71.8125 106.129 71.7812 105.934 71.75 105.723C71.7266 105.512 71.707 105.312 71.6914 105.125C71.6758 104.93 71.668 104.801 71.668 104.738C71.668 104.652 71.6797 104.578 71.7031 104.516C71.7344 104.445 71.7656 104.387 71.7969 104.34C71.8281 104.285 71.8555 104.238 71.8789 104.199C71.9102 104.16 71.9258 104.125 71.9258 104.094C71.9258 104.086 71.9141 104.059 71.8906 104.012C71.8672 103.965 71.8398 103.906 71.8086 103.836C71.7852 103.766 71.7617 103.688 71.7383 103.602C71.7148 103.516 71.7031 103.43 71.7031 103.344C71.7031 103.094 71.7305 102.844 71.7852 102.594C71.8477 102.344 71.8789 102.094 71.8789 101.844C71.8789 101.508 71.7578 101.215 71.5156 100.965C71.3984 100.848 71.3047 100.758 71.2344 100.695C71.1641 100.633 71.0938 100.59 71.0234 100.566C70.9531 100.535 70.8711 100.516 70.7773 100.508C70.6836 100.492 70.5547 100.473 70.3906 100.449C70.3047 100.441 70.1836 100.418 70.0273 100.379C69.8789 100.332 69.7305 100.277 69.582 100.215C69.4336 100.152 69.3008 100.078 69.1836 99.9922C69.0742 99.9062 69.0195 99.8125 69.0195 99.7109C69.0195 99.5781 69.082 99.4648 69.207 99.3711C69.332 99.2695 69.4766 99.1914 69.6406 99.1367C69.8125 99.0742 69.9844 99.0312 70.1562 99.0078C70.3281 98.9766 70.4648 98.9609 70.5664 98.9609C70.6758 98.9609 70.7852 98.9727 70.8945 98.9961C71.0039 99.0117 71.0977 99.0586 71.1758 99.1367C71.2617 99.0508 71.3672 98.9961 71.4922 98.9727C71.6172 98.9414 71.7383 98.9258 71.8555 98.9258C72.1914 98.9258 72.4492 98.9766 72.6289 99.0781C72.8086 99.1797 72.9492 99.293 73.0508 99.418C73.1602 99.5352 73.2461 99.6445 73.3086 99.7461C73.3789 99.8477 73.4648 99.8984 73.5664 99.8984C73.6289 99.8984 73.6875 99.8867 73.7422 99.8633C73.8047 99.8398 73.8672 99.8125 73.9297 99.7812C74.0938 99.7031 74.3398 99.6094 74.668 99.5C74.9961 99.3828 75.3438 99.2734 75.7109 99.1719C76.0781 99.0625 76.4297 98.9727 76.7656 98.9023C77.1016 98.832 77.3555 98.7969 77.5273 98.7969C77.6133 98.7969 77.7344 98.8203 77.8906 98.8672C78.0547 98.9062 78.2344 98.9609 78.4297 99.0312C78.625 99.0938 78.8281 99.1719 79.0391 99.2656C79.25 99.3516 79.4453 99.4414 79.625 99.5352C79.8047 99.6289 79.9609 99.7227 80.0938 99.8164C80.2266 99.9023 80.3164 99.9805 80.3633 100.051C80.4492 100.191 80.5391 100.312 80.6328 100.414C80.7344 100.516 80.8672 100.594 81.0312 100.648C81.0781 100.711 81.1055 100.777 81.1133 100.848C81.1289 100.918 81.1367 100.992 81.1367 101.07V101.293C81.1367 101.449 81.1641 101.57 81.2188 101.656C81.2734 101.742 81.332 101.816 81.3945 101.879C81.457 101.934 81.5156 101.988 81.5703 102.043C81.625 102.09 81.6523 102.16 81.6523 102.254C81.6523 102.309 81.6367 102.359 81.6055 102.406C81.5742 102.445 81.5586 102.488 81.5586 102.535C81.5586 102.652 81.5859 102.773 81.6406 102.898C81.6953 103.016 81.7539 103.148 81.8164 103.297C81.8789 103.438 81.9375 103.59 81.9922 103.754C82.0469 103.918 82.0742 104.098 82.0742 104.293ZM76.707 99.3008C76.707 99.2617 76.6875 99.2227 76.6484 99.1836C76.6094 99.1445 76.5703 99.125 76.5312 99.125C76.4531 99.125 76.4023 99.168 76.3789 99.2539C76.3633 99.332 76.3555 99.4023 76.3555 99.4648C76.3555 99.4492 76.3594 99.4414 76.3672 99.4414C76.3828 99.4414 76.3945 99.4453 76.4023 99.4531L76.3555 99.4766C76.4102 99.4766 76.4805 99.4688 76.5664 99.4531C76.6602 99.4297 76.707 99.3789 76.707 99.3008ZM80.6914 104.656C80.6914 104.422 80.6602 104.195 80.5977 103.977C80.5352 103.75 80.457 103.535 80.3633 103.332C80.2695 103.121 80.1641 102.918 80.0469 102.723C79.9297 102.527 79.8125 102.336 79.6953 102.148C79.6641 102.102 79.6445 102.051 79.6367 101.996C79.6289 101.934 79.625 101.875 79.625 101.82C79.625 101.758 79.6172 101.699 79.6016 101.645C79.5938 101.582 79.5703 101.527 79.5312 101.48C79.4688 101.41 79.4102 101.371 79.3555 101.363C79.3008 101.348 79.2461 101.336 79.1914 101.328C79.1445 101.32 79.0898 101.301 79.0273 101.27C78.9727 101.238 78.918 101.168 78.8633 101.059C78.8242 100.988 78.7383 100.91 78.6055 100.824C78.4805 100.738 78.3398 100.656 78.1836 100.578C78.0352 100.5 77.8867 100.438 77.7383 100.391C77.5977 100.336 77.4883 100.309 77.4102 100.309C77.2539 100.309 77.0977 100.344 76.9414 100.414C76.793 100.477 76.6406 100.508 76.4844 100.508C76.375 100.508 76.2734 100.488 76.1797 100.449C76.0938 100.41 76.0078 100.371 75.9219 100.332C75.8438 100.285 75.7617 100.242 75.6758 100.203C75.5898 100.164 75.5 100.145 75.4062 100.145H75.3477C75.3633 100.223 75.3711 100.285 75.3711 100.332C75.3711 100.402 75.3555 100.461 75.3242 100.508C75.293 100.547 75.25 100.582 75.1953 100.613C75.1484 100.645 75.0938 100.676 75.0312 100.707C74.9766 100.73 74.9258 100.758 74.8789 100.789C74.8086 100.875 74.7695 100.961 74.7617 101.047C74.7617 101.133 74.7227 101.176 74.6445 101.176C74.5898 101.176 74.5469 101.168 74.5156 101.152C74.5156 101.207 74.5 101.246 74.4688 101.27C74.4375 101.293 74.4023 101.312 74.3633 101.328C74.3242 101.344 74.2852 101.363 74.2461 101.387C74.207 101.402 74.1836 101.434 74.1758 101.48C74.0742 101.488 73.9805 101.551 73.8945 101.668C73.8086 101.777 73.7344 101.918 73.6719 102.09C73.6094 102.262 73.5547 102.453 73.5078 102.664C73.4609 102.875 73.4219 103.082 73.3906 103.285C73.3594 103.48 73.3359 103.664 73.3203 103.836C73.3047 104 73.2969 104.125 73.2969 104.211C73.2969 104.492 73.3125 104.773 73.3438 105.055C73.3828 105.328 73.4023 105.605 73.4023 105.887C73.4023 106.098 73.3945 106.309 73.3789 106.52C73.3711 106.73 73.3594 106.945 73.3438 107.164C73.5391 107.375 73.7266 107.586 73.9062 107.797C74.0859 108.008 74.2734 108.199 74.4688 108.371C74.6719 108.535 74.8945 108.676 75.1367 108.793C75.3789 108.902 75.6602 108.961 75.9805 108.969C76.1055 108.969 76.2305 108.984 76.3555 109.016C76.4805 109.047 76.6055 109.078 76.7305 109.109C76.8555 109.141 76.9766 109.172 77.0938 109.203C77.2188 109.227 77.3438 109.238 77.4688 109.238C77.5859 109.238 77.7109 109.215 77.8438 109.168C77.9766 109.113 78.1055 109.047 78.2305 108.969C78.3633 108.891 78.4883 108.809 78.6055 108.723C78.7227 108.629 78.8203 108.539 78.8984 108.453C78.9609 108.383 79.0352 108.332 79.1211 108.301C79.2148 108.27 79.293 108.223 79.3555 108.16C79.4023 108.113 79.4336 108.062 79.4492 108.008C79.4648 107.953 79.4766 107.898 79.4844 107.844C79.5 107.789 79.5195 107.738 79.543 107.691C79.5664 107.637 79.6133 107.59 79.6836 107.551C79.832 107.473 79.9258 107.418 79.9648 107.387C80.0039 107.348 80.0234 107.281 80.0234 107.188V106.965C80.0234 106.887 80.043 106.832 80.082 106.801C80.1211 106.762 80.1641 106.727 80.2109 106.695C80.2578 106.656 80.3008 106.609 80.3398 106.555C80.3789 106.492 80.3984 106.391 80.3984 106.25C80.3984 106.148 80.3906 106.051 80.375 105.957C80.3594 105.855 80.3516 105.754 80.3516 105.652C80.3516 105.551 80.3672 105.457 80.3984 105.371C80.4375 105.285 80.4766 105.203 80.5156 105.125C80.5625 105.047 80.6016 104.973 80.6328 104.902C80.6719 104.824 80.6914 104.742 80.6914 104.656ZM95.9727 109.391C95.9727 109.664 95.8789 109.879 95.6914 110.035C95.5117 110.199 95.293 110.32 95.0352 110.398C94.7773 110.484 94.5078 110.539 94.2266 110.562C93.9531 110.586 93.7188 110.598 93.5234 110.598C93.2656 110.598 93.0508 110.574 92.8789 110.527C92.7148 110.48 92.5703 110.43 92.4453 110.375C92.3203 110.328 92.2109 110.281 92.1172 110.234C92.0234 110.188 91.9258 110.164 91.8242 110.164C91.6914 110.164 91.5586 110.188 91.4258 110.234C91.3008 110.281 91.1719 110.305 91.0391 110.305C90.9453 110.305 90.8672 110.289 90.8047 110.258C90.75 110.227 90.7031 110.188 90.6641 110.141C90.625 110.102 90.5859 110.066 90.5469 110.035C90.5156 110.004 90.4766 109.988 90.4297 109.988C90.375 109.988 90.332 110.008 90.3008 110.047C90.2695 110.094 90.2344 110.145 90.1953 110.199C90.1562 110.254 90.0977 110.301 90.0195 110.34C89.9492 110.387 89.8438 110.41 89.7031 110.41C89.5391 110.41 89.3789 110.391 89.2227 110.352C89.0664 110.32 88.9062 110.305 88.7422 110.305C88.5781 110.305 88.4141 110.332 88.25 110.387C88.0938 110.449 87.9453 110.48 87.8047 110.48C87.7422 110.48 87.6953 110.457 87.6641 110.41C87.6328 110.371 87.5977 110.352 87.5586 110.352C87.4258 110.352 87.2852 110.383 87.1367 110.445C86.9961 110.508 86.8516 110.539 86.7031 110.539C86.625 110.539 86.5469 110.527 86.4688 110.504C86.3984 110.488 86.3242 110.48 86.2461 110.48C86.1133 110.48 85.9805 110.512 85.8477 110.574C85.7148 110.637 85.5508 110.668 85.3555 110.668C85.2852 110.668 85.1289 110.656 84.8867 110.633C84.6523 110.617 84.4102 110.59 84.1602 110.551C83.9102 110.512 83.6836 110.461 83.4805 110.398C83.2852 110.344 83.1875 110.281 83.1875 110.211C83.1875 110.008 83.2227 109.805 83.293 109.602C83.3711 109.398 83.4102 109.203 83.4102 109.016V108.992C83.3086 108.992 83.25 108.938 83.2344 108.828C83.25 108.797 83.2734 108.773 83.3047 108.758C83.3438 108.734 83.3828 108.719 83.4219 108.711C83.4609 108.695 83.4961 108.676 83.5273 108.652C83.5586 108.629 83.5742 108.594 83.5742 108.547V108.5C83.8867 108.531 84.1914 108.551 84.4883 108.559C84.793 108.566 85.1094 108.57 85.4375 108.57C85.7422 108.57 86.0781 108.562 86.4453 108.547C86.8203 108.523 87.1641 108.465 87.4766 108.371C87.7969 108.277 88.0625 108.137 88.2734 107.949C88.4922 107.754 88.6016 107.484 88.6016 107.141V107.059V106.871C88.5625 106.012 88.5195 105.168 88.4727 104.34C88.4336 103.504 88.4141 102.656 88.4141 101.797C88.4141 101.57 88.3945 101.352 88.3555 101.141C88.3242 100.922 88.3086 100.703 88.3086 100.484C88.3086 100.211 88.3555 99.9375 88.4492 99.6641C88.5508 99.3906 88.707 99.1602 88.918 98.9727C88.9102 98.9258 88.8906 98.8945 88.8594 98.8789C88.8281 98.8555 88.7891 98.8398 88.7422 98.832C88.6953 98.8242 88.6484 98.8164 88.6016 98.8086C88.5625 98.8008 88.5273 98.7891 88.4961 98.7734C88.4492 98.75 88.418 98.6953 88.4023 98.6094C88.3867 98.5234 88.3711 98.4297 88.3555 98.3281C88.3477 98.2266 88.3359 98.1289 88.3203 98.0352C88.3125 97.9336 88.2891 97.8555 88.25 97.8008C88.2734 97.5742 88.3125 97.3516 88.3672 97.1328C88.4219 96.9141 88.4492 96.6914 88.4492 96.4648C88.4492 96.3008 88.4258 96.1719 88.3789 96.0781C88.3398 95.9844 88.293 95.9062 88.2383 95.8438C88.1836 95.7812 88.1328 95.7266 88.0859 95.6797C88.0469 95.625 88.0273 95.5586 88.0273 95.4805C88.0273 95.418 88.0469 95.3594 88.0859 95.3047L87.9922 95.293C87.9141 95.293 87.8555 95.3125 87.8164 95.3516C87.7773 95.3906 87.7383 95.4336 87.6992 95.4805C87.668 95.5273 87.6328 95.5703 87.5938 95.6094C87.5547 95.6484 87.5 95.668 87.4297 95.668C87.375 95.668 87.3125 95.6562 87.2422 95.6328C87.1094 95.6719 86.9844 95.6914 86.8672 95.6914C86.5938 95.6914 86.3203 95.6562 86.0469 95.5859C85.7812 95.5078 85.5117 95.4688 85.2383 95.4688C85.0898 95.4688 84.9453 95.4766 84.8047 95.4922C84.6641 95.5 84.5234 95.5039 84.3828 95.5039C84.1797 95.5039 83.9766 95.4805 83.7734 95.4336C83.5703 95.3867 83.3906 95.2852 83.2344 95.1289V94.9883C83.2344 94.5742 83.3711 94.2617 83.6445 94.0508C83.9258 93.8398 84.2656 93.7344 84.6641 93.7344C84.9375 93.7344 85.207 93.7695 85.4727 93.8398C85.7383 93.9102 86.0078 93.9453 86.2812 93.9453C86.4297 93.9453 86.5859 93.9297 86.75 93.8984C86.9141 93.8672 87.082 93.832 87.2539 93.793C87.4258 93.7539 87.5977 93.7188 87.7695 93.6875C87.9492 93.6562 88.125 93.6406 88.2969 93.6406C88.5625 93.6406 88.8125 93.6992 89.0469 93.8164C89.2812 93.9258 89.5156 94.0312 89.75 94.1328L89.7383 94.2266C89.7383 94.2969 89.7539 94.3633 89.7852 94.4258C89.8242 94.4805 89.8672 94.5391 89.9141 94.6016C89.9609 94.6562 90 94.7148 90.0312 94.7773C90.0703 94.832 90.0898 94.8945 90.0898 94.9648C90.0898 95.0352 90.0781 95.1055 90.0547 95.1758C90.0391 95.2383 90.0312 95.3047 90.0312 95.375C90.0312 95.5469 90.0625 95.7109 90.125 95.8672C90.1953 96.0234 90.2305 96.1914 90.2305 96.3711C90.2305 96.5586 90.207 96.7422 90.1602 96.9219C90.1211 97.1016 90.1016 97.2852 90.1016 97.4727C90.1016 97.6992 90.1289 97.9258 90.1836 98.1523C90.2383 98.3789 90.2656 98.6055 90.2656 98.832C90.2656 99.0195 90.2344 99.2031 90.1719 99.3828C90.1172 99.5625 90.0898 99.7422 90.0898 99.9219C90.0898 100.055 90.1055 100.188 90.1367 100.32C90.1758 100.445 90.2188 100.57 90.2656 100.695C90.3125 100.82 90.3516 100.949 90.3828 101.082C90.4219 101.207 90.4414 101.34 90.4414 101.48V101.715C90.4414 101.84 90.4297 101.961 90.4062 102.078C90.3906 102.188 90.3398 102.293 90.2539 102.395C90.293 102.543 90.332 102.703 90.3711 102.875C90.418 103.047 90.4414 103.211 90.4414 103.367C90.4414 103.445 90.4336 103.531 90.418 103.625C90.4102 103.711 90.3906 103.801 90.3594 103.895C90.3359 103.98 90.3008 104.062 90.2539 104.141C90.207 104.211 90.1523 104.27 90.0898 104.316C90.1914 104.613 90.2578 104.914 90.2891 105.219C90.3203 105.523 90.3438 105.828 90.3594 106.133C90.3672 106.227 90.3828 106.348 90.4062 106.496C90.4297 106.645 90.4531 106.793 90.4766 106.941C90.5 107.082 90.5195 107.215 90.5352 107.34C90.5586 107.457 90.5703 107.539 90.5703 107.586C90.5703 107.719 90.5469 107.848 90.5 107.973C90.4531 108.098 90.4297 108.227 90.4297 108.359C90.4297 108.461 90.4531 108.57 90.5 108.688C90.5469 108.797 90.6328 108.852 90.7578 108.852C90.8516 108.852 90.9297 108.832 90.9922 108.793C91.0625 108.746 91.1367 108.699 91.2148 108.652C91.293 108.598 91.3828 108.551 91.4844 108.512C91.5938 108.465 91.7383 108.441 91.918 108.441C92.1211 108.441 92.3125 108.469 92.4922 108.523C92.6719 108.578 92.8633 108.605 93.0664 108.605C93.2148 108.605 93.3633 108.594 93.5117 108.57C93.668 108.539 93.8164 108.508 93.957 108.477C94.1055 108.438 94.2539 108.402 94.4023 108.371C94.5508 108.34 94.7031 108.324 94.8594 108.324C95.1719 108.324 95.4336 108.414 95.6445 108.594C95.8633 108.773 95.9727 109.039 95.9727 109.391ZM89.2461 94.8008C89.2148 94.7695 89.1758 94.7383 89.1289 94.707C89.0898 94.6758 89.043 94.6602 88.9883 94.6602C88.9492 94.6602 88.9141 94.6797 88.8828 94.7188C88.8594 94.75 88.8477 94.7852 88.8477 94.8242L88.9062 94.9648C88.9375 94.9805 88.9609 94.9883 88.9766 94.9883C89.0391 94.9883 89.0898 94.9688 89.1289 94.9297C89.1758 94.8828 89.2148 94.8398 89.2461 94.8008ZM89.9492 98.0586C89.9492 97.9961 89.9297 97.9336 89.8906 97.8711C89.8594 97.8008 89.8047 97.7656 89.7266 97.7656C89.7031 97.7656 89.6758 97.7695 89.6445 97.7773C89.6211 97.7852 89.6016 97.793 89.5859 97.8008V98.3047C89.6484 98.3359 89.6953 98.3516 89.7266 98.3516C89.8047 98.3516 89.8594 98.3203 89.8906 98.2578C89.9297 98.1875 89.9492 98.1211 89.9492 98.0586ZM109.086 104.867C109.086 104.977 109.066 105.082 109.027 105.184C108.996 105.277 108.957 105.359 108.91 105.43C108.871 105.5 108.832 105.559 108.793 105.605C108.762 105.652 108.746 105.68 108.746 105.688C108.746 105.766 108.77 105.848 108.816 105.934C108.871 106.02 108.898 106.113 108.898 106.215C108.898 106.262 108.879 106.293 108.84 106.309C108.809 106.324 108.773 106.332 108.734 106.332C108.664 106.332 108.605 106.324 108.559 106.309C108.566 106.457 108.578 106.602 108.594 106.742C108.617 106.883 108.629 107.027 108.629 107.176C108.629 107.402 108.605 107.551 108.559 107.621C108.52 107.684 108.477 107.723 108.43 107.738C108.383 107.754 108.336 107.773 108.289 107.797C108.25 107.812 108.23 107.883 108.23 108.008C108.23 108.078 108.18 108.168 108.078 108.277C107.984 108.387 107.867 108.496 107.727 108.605C107.594 108.715 107.453 108.809 107.305 108.887C107.164 108.965 107.051 109.004 106.965 109.004C106.941 109.004 106.914 108.996 106.883 108.98C106.883 109.043 106.887 109.109 106.895 109.18C106.902 109.25 106.906 109.316 106.906 109.379C106.906 109.48 106.875 109.551 106.812 109.59C106.75 109.621 106.68 109.652 106.602 109.684C106.484 109.738 106.363 109.82 106.238 109.93C106.113 110.031 105.984 110.137 105.852 110.246C105.719 110.355 105.582 110.449 105.441 110.527C105.309 110.613 105.168 110.656 105.02 110.656C104.895 110.656 104.777 110.625 104.668 110.562C104.566 110.5 104.445 110.469 104.305 110.469C104.18 110.469 104.074 110.484 103.988 110.516C103.902 110.555 103.82 110.594 103.742 110.633C103.672 110.68 103.598 110.719 103.52 110.75C103.441 110.789 103.352 110.809 103.25 110.809C103.047 110.809 102.844 110.754 102.641 110.645C102.438 110.543 102.242 110.461 102.055 110.398C101.945 110.359 101.828 110.328 101.703 110.305C101.578 110.289 101.457 110.27 101.34 110.246C101.223 110.223 101.109 110.184 101 110.129C100.898 110.082 100.809 110.012 100.73 109.918C100.566 109.715 100.375 109.547 100.156 109.414C99.9375 109.281 99.7148 109.156 99.4883 109.039C99.2617 108.922 99.043 108.801 98.832 108.676C98.6211 108.543 98.4375 108.371 98.2812 108.16C98.1641 107.996 98.0312 107.82 97.8828 107.633C97.7344 107.438 97.5938 107.234 97.4609 107.023C97.3359 106.812 97.2305 106.598 97.1445 106.379C97.0586 106.16 97.0156 105.945 97.0156 105.734C97.0156 105.578 97.0312 105.426 97.0625 105.277C97.0938 105.129 97.125 104.98 97.1562 104.832C97.1953 104.676 97.2305 104.523 97.2617 104.375C97.293 104.227 97.3086 104.074 97.3086 103.918V103.789C97.3086 103.758 97.2969 103.723 97.2734 103.684C97.25 103.645 97.2227 103.609 97.1914 103.578C97.168 103.539 97.1406 103.508 97.1094 103.484C97.0859 103.453 97.0703 103.438 97.0625 103.438C97.0469 103.438 97.0391 103.441 97.0391 103.449C97.0469 103.379 97.0664 103.273 97.0977 103.133C97.1367 102.984 97.1797 102.836 97.2266 102.688C97.2734 102.531 97.3203 102.391 97.3672 102.266C97.4141 102.133 97.457 102.047 97.4961 102.008C97.543 101.969 97.5859 101.93 97.625 101.891C97.6719 101.844 97.6953 101.785 97.6953 101.715C97.6953 101.645 97.6914 101.578 97.6836 101.516C97.6758 101.445 97.6719 101.375 97.6719 101.305C97.6719 101.211 97.6836 101.156 97.707 101.141C97.7305 101.117 97.7617 101.105 97.8008 101.105C97.8398 101.105 97.8789 101.102 97.918 101.094C97.957 101.078 97.9961 101.035 98.0352 100.965C98.1055 100.824 98.1719 100.695 98.2344 100.578C98.3047 100.453 98.3789 100.34 98.457 100.238C98.5352 100.137 98.625 100.043 98.7266 99.957C98.8281 99.8711 98.9531 99.7891 99.1016 99.7109C99.2266 99.6406 99.3477 99.5547 99.4648 99.4531C99.5898 99.3516 99.7148 99.25 99.8398 99.1484C99.9648 99.0469 100.09 98.9609 100.215 98.8906C100.348 98.8203 100.488 98.7852 100.637 98.7852C100.848 98.7852 101.051 98.75 101.246 98.6797C101.449 98.6016 101.652 98.543 101.855 98.5039C102.176 98.457 102.492 98.4141 102.805 98.375C103.125 98.3281 103.449 98.3047 103.777 98.3047C103.957 98.3047 104.176 98.3359 104.434 98.3984C104.691 98.4531 104.953 98.5273 105.219 98.6211C105.492 98.7148 105.746 98.8203 105.98 98.9375C106.223 99.0547 106.414 99.1719 106.555 99.2891V99.3242C106.555 99.4336 106.535 99.5469 106.496 99.6641C106.457 99.7734 106.438 99.8828 106.438 99.9922C106.438 100.008 106.438 100.023 106.438 100.039C106.438 100.055 106.445 100.062 106.461 100.062C106.594 100.062 106.719 100.047 106.836 100.016C106.961 99.9766 107.09 99.957 107.223 99.957C107.238 100.09 107.297 100.18 107.398 100.227C107.5 100.273 107.602 100.316 107.703 100.355C107.797 100.402 107.883 100.488 107.961 100.613C108.047 100.73 108.125 100.867 108.195 101.023C108.266 101.172 108.332 101.32 108.395 101.469C108.465 101.617 108.531 101.738 108.594 101.832C108.656 101.926 108.711 102.039 108.758 102.172C108.812 102.297 108.855 102.43 108.887 102.57C108.926 102.711 108.953 102.852 108.969 102.992C108.984 103.125 108.992 103.25 108.992 103.367C108.992 103.523 108.961 103.656 108.898 103.766C108.844 103.867 108.781 103.961 108.711 104.047C108.641 104.125 108.574 104.203 108.512 104.281C108.457 104.352 108.43 104.434 108.43 104.527C108.43 104.582 108.441 104.633 108.465 104.68C108.488 104.727 108.52 104.77 108.559 104.809C108.574 104.801 108.605 104.793 108.652 104.785C108.707 104.777 108.734 104.754 108.734 104.715V104.703C108.734 104.641 108.707 104.582 108.652 104.527C108.605 104.473 108.582 104.406 108.582 104.328C108.582 104.312 108.59 104.289 108.605 104.258C108.621 104.219 108.641 104.199 108.664 104.199C108.711 104.199 108.758 104.23 108.805 104.293C108.852 104.348 108.895 104.41 108.934 104.48C108.98 104.543 109.016 104.598 109.039 104.645C109.062 104.691 109.074 104.707 109.074 104.691L109.062 104.68C109.07 104.719 109.074 104.754 109.074 104.785C109.082 104.809 109.086 104.836 109.086 104.867ZM107.914 104.961C107.914 104.836 107.867 104.762 107.773 104.738C107.68 104.707 107.574 104.688 107.457 104.68C107.34 104.672 107.223 104.66 107.105 104.645C106.996 104.629 106.922 104.57 106.883 104.469V104.352C106.883 104.18 106.859 103.98 106.812 103.754C106.773 103.52 106.723 103.285 106.66 103.051C106.598 102.809 106.531 102.574 106.461 102.348C106.391 102.113 106.324 101.906 106.262 101.727C106.199 101.547 106.148 101.402 106.109 101.293C106.07 101.184 106.051 101.129 106.051 101.129C105.988 101.145 105.938 101.152 105.898 101.152C105.766 101.152 105.648 101.125 105.547 101.07C105.453 101.016 105.344 100.957 105.219 100.895C105.102 100.832 104.953 100.773 104.773 100.719C104.602 100.664 104.371 100.637 104.082 100.637C103.762 100.637 103.445 100.617 103.133 100.578C102.82 100.531 102.504 100.508 102.184 100.508C101.746 100.508 101.336 100.609 100.953 100.812C100.57 101.008 100.234 101.27 99.9453 101.598C99.6562 101.918 99.4297 102.281 99.2656 102.688C99.1016 103.094 99.0195 103.504 99.0195 103.918C99.0195 104.09 99.0234 104.293 99.0312 104.527C99.0391 104.754 99.0586 104.984 99.0898 105.219C99.1211 105.445 99.1719 105.66 99.2422 105.863C99.3125 106.059 99.4102 106.207 99.5352 106.309V106.637C99.5664 106.668 99.6055 106.688 99.6523 106.695C99.707 106.695 99.7578 106.695 99.8047 106.695C99.8594 106.695 99.9062 106.703 99.9453 106.719C99.9844 106.727 100.016 106.758 100.039 106.812C100.141 107.102 100.273 107.324 100.438 107.48C100.602 107.629 100.777 107.758 100.965 107.867C101.152 107.969 101.34 108.074 101.527 108.184C101.715 108.285 101.887 108.438 102.043 108.641C102.105 108.633 102.172 108.629 102.242 108.629C102.312 108.621 102.379 108.617 102.441 108.617C102.691 108.617 102.934 108.637 103.168 108.676C103.41 108.707 103.652 108.723 103.895 108.723C104.152 108.723 104.383 108.656 104.586 108.523C104.797 108.391 104.977 108.223 105.125 108.02C105.219 107.887 105.305 107.773 105.383 107.68C105.461 107.586 105.539 107.5 105.617 107.422C105.703 107.336 105.793 107.258 105.887 107.188C105.988 107.109 106.105 107.023 106.238 106.93C106.285 106.898 106.34 106.859 106.402 106.812C106.473 106.766 106.539 106.715 106.602 106.66C106.672 106.598 106.73 106.539 106.777 106.484C106.824 106.422 106.848 106.363 106.848 106.309C106.848 106.238 106.836 106.168 106.812 106.098C106.797 106.027 106.789 105.957 106.789 105.887C106.789 105.809 106.801 105.715 106.824 105.605C106.848 105.496 106.883 105.391 106.93 105.289C106.984 105.188 107.047 105.105 107.117 105.043C107.195 104.973 107.289 104.938 107.398 104.938C107.484 104.938 107.57 104.957 107.656 104.996C107.742 105.035 107.82 105.082 107.891 105.137C107.906 105.059 107.914 105 107.914 104.961ZM123.641 101.445C123.641 101.602 123.609 101.734 123.547 101.844C123.484 101.953 123.414 102.059 123.336 102.16C123.266 102.254 123.191 102.352 123.113 102.453C123.043 102.555 122.996 102.676 122.973 102.816C122.902 102.785 122.828 102.766 122.75 102.758C122.68 102.75 122.605 102.746 122.527 102.746C122.34 102.746 122.152 102.762 121.965 102.793C121.785 102.816 121.605 102.828 121.426 102.828C121.215 102.828 121.039 102.766 120.898 102.641C120.766 102.508 120.656 102.348 120.57 102.16C120.492 101.973 120.438 101.773 120.406 101.562C120.375 101.344 120.359 101.148 120.359 100.977C120.359 100.758 120.395 100.535 120.465 100.309C120.402 100.285 120.348 100.273 120.301 100.273C120.199 100.273 120.125 100.305 120.078 100.367C120.039 100.43 119.98 100.461 119.902 100.461C119.832 100.461 119.77 100.438 119.715 100.391C119.66 100.336 119.594 100.309 119.516 100.309C119.398 100.309 119.25 100.348 119.07 100.426C118.898 100.496 118.73 100.59 118.566 100.707C118.402 100.824 118.258 100.953 118.133 101.094C118.016 101.227 117.957 101.355 117.957 101.48C117.793 101.496 117.637 101.543 117.488 101.621C117.348 101.691 117.211 101.77 117.078 101.855C116.977 101.918 116.891 102.016 116.82 102.148C116.75 102.281 116.684 102.426 116.621 102.582C116.566 102.73 116.508 102.883 116.445 103.039C116.391 103.195 116.324 103.324 116.246 103.426C116.113 103.598 115.996 103.773 115.895 103.953C115.801 104.125 115.754 104.32 115.754 104.539C115.754 104.812 115.797 105.09 115.883 105.371C115.969 105.652 116.012 105.938 116.012 106.227C116.012 106.414 115.996 106.602 115.965 106.789C115.941 106.977 115.93 107.16 115.93 107.34C115.93 107.559 115.969 107.734 116.047 107.867C116.125 108 116.23 108.105 116.363 108.184C116.496 108.254 116.648 108.301 116.82 108.324C116.992 108.348 117.168 108.359 117.348 108.359C117.543 108.359 117.73 108.355 117.91 108.348C118.098 108.332 118.27 108.324 118.426 108.324C118.48 108.387 118.512 108.445 118.52 108.5C118.527 108.555 118.523 108.613 118.508 108.676C118.5 108.73 118.484 108.789 118.461 108.852C118.445 108.906 118.438 108.973 118.438 109.051C118.438 109.082 118.445 109.121 118.461 109.168C118.578 109.168 118.68 109.141 118.766 109.086C118.852 109.031 118.914 108.945 118.953 108.828C119.008 108.844 119.055 108.867 119.094 108.898C119.141 108.93 119.164 108.977 119.164 109.039C119.164 109.086 119.152 109.133 119.129 109.18C119.105 109.219 119.078 109.258 119.047 109.297C119.016 109.336 118.988 109.379 118.965 109.426C118.941 109.465 118.93 109.512 118.93 109.566C118.93 109.598 118.934 109.633 118.941 109.672C118.949 109.703 118.961 109.73 118.977 109.754C118.938 109.816 118.883 109.859 118.812 109.883C118.742 109.906 118.672 109.918 118.602 109.918C118.477 109.918 118.371 109.898 118.285 109.859C118.207 109.82 118.133 109.777 118.062 109.73C118 109.684 117.941 109.641 117.887 109.602C117.832 109.562 117.766 109.543 117.688 109.543C117.656 109.543 117.609 109.551 117.547 109.566C117.484 109.582 117.422 109.602 117.359 109.625C117.297 109.648 117.242 109.68 117.195 109.719C117.148 109.75 117.125 109.781 117.125 109.812C117.125 109.875 117.145 109.93 117.184 109.977C117.23 110.023 117.254 110.078 117.254 110.141C117.254 110.195 117.234 110.238 117.195 110.27C117.156 110.301 117.109 110.32 117.055 110.328C117 110.344 116.941 110.352 116.879 110.352C116.824 110.359 116.777 110.363 116.738 110.363C116.434 110.363 116.129 110.328 115.824 110.258C115.527 110.195 115.227 110.164 114.922 110.164C114.781 110.164 114.641 110.195 114.5 110.258C114.359 110.32 114.211 110.352 114.055 110.352C113.969 110.352 113.902 110.332 113.855 110.293C113.816 110.262 113.781 110.223 113.75 110.176C113.719 110.129 113.684 110.086 113.645 110.047C113.605 110.016 113.547 110 113.469 110C113.32 110 113.172 110.016 113.023 110.047C112.883 110.078 112.738 110.109 112.59 110.141C112.449 110.18 112.305 110.211 112.156 110.234C112.016 110.266 111.871 110.281 111.723 110.281C111.645 110.281 111.551 110.27 111.441 110.246C111.332 110.23 111.227 110.199 111.125 110.152C111.023 110.105 110.938 110.047 110.867 109.977C110.797 109.906 110.762 109.82 110.762 109.719C110.762 109.656 110.797 109.574 110.867 109.473C110.945 109.371 111.031 109.273 111.125 109.18C111.219 109.078 111.312 108.992 111.406 108.922C111.5 108.852 111.57 108.816 111.617 108.816C111.742 108.816 111.863 108.82 111.98 108.828C112.105 108.836 112.234 108.84 112.367 108.84C112.578 108.84 112.789 108.809 113 108.746C113.219 108.676 113.414 108.578 113.586 108.453C113.766 108.328 113.91 108.172 114.02 107.984C114.129 107.797 114.184 107.586 114.184 107.352C114.184 107.25 114.176 107.152 114.16 107.059C114.145 106.957 114.137 106.855 114.137 106.754C114.137 106.551 114.16 106.348 114.207 106.145C114.254 105.941 114.277 105.738 114.277 105.535C114.277 105.262 114.246 104.984 114.184 104.703C114.129 104.414 114.102 104.125 114.102 103.836C114.102 103.578 114.105 103.324 114.113 103.074C114.129 102.816 114.137 102.559 114.137 102.301C114.137 102.184 114.133 102.012 114.125 101.785C114.117 101.559 114.09 101.332 114.043 101.105C114.004 100.879 113.938 100.68 113.844 100.508C113.758 100.336 113.637 100.25 113.48 100.25C113.309 100.25 113.137 100.27 112.965 100.309C112.793 100.348 112.617 100.367 112.438 100.367C112.305 100.367 112.148 100.359 111.969 100.344C111.789 100.32 111.617 100.281 111.453 100.227C111.289 100.164 111.148 100.078 111.031 99.9688C110.914 99.8594 110.855 99.7148 110.855 99.5352C110.855 99.3398 110.883 99.1836 110.938 99.0664C110.992 98.9414 111.062 98.8477 111.148 98.7852C111.242 98.7227 111.348 98.6797 111.465 98.6562C111.59 98.6328 111.723 98.6211 111.863 98.6211C111.988 98.6211 112.117 98.625 112.25 98.6328C112.383 98.6406 112.512 98.6445 112.637 98.6445C112.887 98.6445 113.133 98.6328 113.375 98.6094C113.625 98.5781 113.875 98.5625 114.125 98.5625C114.297 98.5625 114.469 98.5703 114.641 98.5859C114.812 98.6016 114.98 98.6367 115.145 98.6914C115.293 98.7383 115.402 98.8281 115.473 98.9609C115.543 99.0859 115.605 99.2148 115.66 99.3477C115.723 99.4805 115.793 99.6016 115.871 99.7109C115.949 99.8125 116.074 99.8633 116.246 99.8633C116.324 99.8633 116.395 99.8438 116.457 99.8047C116.527 99.7578 116.594 99.707 116.656 99.6523C116.719 99.5977 116.781 99.5469 116.844 99.5C116.906 99.4531 116.98 99.4219 117.066 99.4062C117.238 99.3828 117.395 99.3281 117.535 99.2422C117.684 99.1562 117.828 99.0703 117.969 98.9844C118.109 98.8984 118.25 98.8203 118.391 98.75C118.539 98.6797 118.699 98.6445 118.871 98.6445C118.973 98.6445 119.098 98.6328 119.246 98.6094C119.402 98.5859 119.555 98.5547 119.703 98.5156C119.859 98.4688 120.004 98.4141 120.137 98.3516C120.277 98.2891 120.387 98.2188 120.465 98.1406C120.676 98.1562 120.922 98.207 121.203 98.293C121.492 98.3789 121.766 98.4961 122.023 98.6445C122.289 98.7852 122.52 98.9531 122.715 99.1484C122.91 99.3438 123.023 99.5625 123.055 99.8047C123.078 99.9531 123.121 100.094 123.184 100.227C123.246 100.359 123.309 100.492 123.371 100.625C123.441 100.75 123.504 100.883 123.559 101.023C123.613 101.156 123.641 101.297 123.641 101.445ZM135.992 107.551C135.992 107.762 135.957 107.941 135.887 108.09C135.824 108.238 135.738 108.371 135.629 108.488C135.527 108.605 135.406 108.715 135.266 108.816C135.133 108.918 134.996 109.027 134.855 109.145C134.746 109.238 134.648 109.309 134.562 109.355C134.477 109.402 134.391 109.441 134.305 109.473C134.227 109.504 134.141 109.535 134.047 109.566C133.961 109.598 133.859 109.641 133.742 109.695C133.586 109.773 133.453 109.848 133.344 109.918C133.242 109.98 133.137 110.039 133.027 110.094C132.926 110.148 132.812 110.191 132.688 110.223C132.562 110.262 132.406 110.293 132.219 110.316C131.906 110.355 131.59 110.402 131.27 110.457C130.957 110.512 130.645 110.539 130.332 110.539C130.27 110.539 130.203 110.523 130.133 110.492C130.07 110.469 129.996 110.441 129.91 110.41C129.824 110.387 129.727 110.359 129.617 110.328C129.516 110.305 129.391 110.293 129.242 110.293C129.086 110.293 128.961 110.27 128.867 110.223C128.773 110.176 128.688 110.121 128.609 110.059C128.539 109.996 128.465 109.93 128.387 109.859C128.309 109.781 128.207 109.715 128.082 109.66C127.613 109.449 127.215 109.195 126.887 108.898C126.559 108.602 126.277 108.27 126.043 107.902C125.809 107.535 125.613 107.137 125.457 106.707C125.301 106.277 125.168 105.828 125.059 105.359C124.973 105.031 124.93 104.703 124.93 104.375C124.93 103.945 125.031 103.547 125.234 103.18C125.156 102.961 125.117 102.75 125.117 102.547C125.117 102.398 125.16 102.18 125.246 101.891C125.332 101.594 125.441 101.297 125.574 101C125.715 100.703 125.863 100.438 126.02 100.203C126.184 99.9609 126.336 99.8125 126.477 99.7578C126.586 99.7188 126.66 99.6875 126.699 99.6641C126.746 99.6328 126.77 99.5547 126.77 99.4297C126.77 99.3359 126.805 99.2578 126.875 99.1953C126.953 99.1328 127.043 99.082 127.145 99.043C127.254 99.0039 127.359 98.9688 127.461 98.9375C127.57 98.9062 127.66 98.875 127.73 98.8438C128.02 98.7031 128.293 98.5859 128.551 98.4922C128.816 98.3906 129.078 98.3086 129.336 98.2461C129.602 98.1758 129.875 98.125 130.156 98.0938C130.438 98.0625 130.738 98.0469 131.059 98.0469C131.23 98.0469 131.398 98.0703 131.562 98.1172C131.727 98.1641 131.883 98.2266 132.031 98.3047C132.188 98.375 132.34 98.457 132.488 98.5508C132.637 98.6367 132.781 98.7227 132.922 98.8086H132.91C133.027 98.8242 133.137 98.8594 133.238 98.9141C133.348 98.9609 133.461 98.9922 133.578 99.0078C133.688 99.1406 133.828 99.2695 134 99.3945C134.18 99.5117 134.352 99.6367 134.516 99.7695C134.688 99.9023 134.832 100.047 134.949 100.203C135.074 100.352 135.137 100.523 135.137 100.719C135.137 100.75 135.133 100.781 135.125 100.812C135.125 100.844 135.121 100.879 135.113 100.918L135.16 100.859C135.191 100.883 135.219 100.922 135.242 100.977C135.273 101.031 135.301 101.094 135.324 101.164C135.348 101.227 135.367 101.293 135.383 101.363C135.398 101.426 135.41 101.477 135.418 101.516C135.48 101.617 135.562 101.699 135.664 101.762C135.773 101.824 135.859 101.91 135.922 102.02C135.844 102.098 135.805 102.199 135.805 102.324C135.805 102.457 135.832 102.59 135.887 102.723C135.941 102.848 135.969 102.977 135.969 103.109C135.969 103.266 135.961 103.418 135.945 103.566C135.93 103.707 135.922 103.855 135.922 104.012C135.922 104.129 135.875 104.219 135.781 104.281C135.695 104.344 135.598 104.398 135.488 104.445C135.387 104.492 135.293 104.539 135.207 104.586C135.121 104.633 135.078 104.699 135.078 104.785C135.078 104.848 135.039 104.879 134.961 104.879C134.891 104.871 134.832 104.867 134.785 104.867C134.441 104.867 134.098 104.824 133.754 104.738C133.418 104.652 133.082 104.609 132.746 104.609C132.379 104.609 132.016 104.637 131.656 104.691C131.297 104.738 130.934 104.762 130.566 104.762C130.293 104.762 130.02 104.754 129.746 104.738C129.48 104.723 129.211 104.715 128.938 104.715C128.867 104.715 128.734 104.73 128.539 104.762C128.344 104.785 128.137 104.82 127.918 104.867C127.707 104.906 127.504 104.957 127.309 105.02C127.113 105.074 126.977 105.129 126.898 105.184C126.891 105.223 126.887 105.277 126.887 105.348C126.887 105.715 126.992 106.094 127.203 106.484C127.422 106.875 127.707 107.23 128.059 107.551C128.41 107.871 128.805 108.137 129.242 108.348C129.68 108.559 130.121 108.664 130.566 108.664C130.824 108.664 131.078 108.676 131.328 108.699C131.586 108.715 131.836 108.77 132.078 108.863C132.289 108.762 132.48 108.645 132.652 108.512C132.832 108.379 133.004 108.238 133.168 108.09C133.332 107.941 133.492 107.789 133.648 107.633C133.805 107.477 133.965 107.32 134.129 107.164C134.16 107.133 134.234 107.105 134.352 107.082C134.477 107.051 134.609 107.027 134.75 107.012C134.891 106.988 135.023 106.973 135.148 106.965C135.281 106.949 135.371 106.941 135.418 106.941C135.598 106.941 135.766 106.969 135.922 107.023C135.969 107.203 135.992 107.379 135.992 107.551ZM134.234 102.793C134.234 102.676 134.215 102.562 134.176 102.453C134.137 102.344 134.105 102.23 134.082 102.113C134.043 101.895 134.023 101.684 134.023 101.48C134.023 101.27 133.992 101.059 133.93 100.848H133.918C133.918 100.895 133.902 100.941 133.871 100.988C133.84 101.027 133.797 101.047 133.742 101.047C133.648 101.047 133.559 101.023 133.473 100.977C133.387 100.93 133.312 100.871 133.25 100.801C132.953 100.668 132.684 100.543 132.441 100.426C132.207 100.309 131.969 100.207 131.727 100.121C131.492 100.027 131.238 99.957 130.965 99.9102C130.699 99.8555 130.391 99.8281 130.039 99.8281C130.008 99.8281 129.977 99.832 129.945 99.8398C129.922 99.8398 129.898 99.8516 129.875 99.875L129.934 100.004L129.84 100.027C129.629 100.066 129.453 100.105 129.312 100.145C129.18 100.176 129.059 100.223 128.949 100.285C128.84 100.348 128.73 100.426 128.621 100.52C128.52 100.605 128.387 100.719 128.223 100.859C128.145 100.93 128.059 100.984 127.965 101.023C127.879 101.055 127.789 101.086 127.695 101.117C127.609 101.141 127.523 101.168 127.438 101.199C127.359 101.23 127.293 101.281 127.238 101.352C127.184 101.547 127.102 101.738 126.992 101.926C126.891 102.105 126.84 102.297 126.84 102.5C126.84 102.617 126.887 102.723 126.98 102.816C127.082 102.902 127.207 102.977 127.355 103.039C127.512 103.102 127.68 103.156 127.859 103.203C128.047 103.25 128.23 103.285 128.41 103.309C128.59 103.332 128.754 103.352 128.902 103.367C129.059 103.375 129.18 103.379 129.266 103.379C129.562 103.379 129.855 103.352 130.145 103.297C130.434 103.234 130.727 103.203 131.023 103.203C131.328 103.203 131.633 103.219 131.938 103.25C132.242 103.273 132.547 103.285 132.852 103.285C132.93 103.285 133.047 103.281 133.203 103.273C133.359 103.266 133.512 103.246 133.66 103.215C133.816 103.176 133.949 103.125 134.059 103.062C134.176 102.992 134.234 102.902 134.234 102.793ZM159.242 109.449C159.242 109.504 159.23 109.59 159.207 109.707C159.191 109.816 159.16 109.926 159.113 110.035C159.074 110.152 159.027 110.254 158.973 110.34C158.918 110.426 158.855 110.469 158.785 110.469C158.699 110.469 158.613 110.449 158.527 110.41C158.441 110.379 158.355 110.363 158.27 110.363C157.996 110.363 157.727 110.387 157.461 110.434C157.195 110.488 156.926 110.516 156.652 110.516C156.52 110.516 156.395 110.496 156.277 110.457C156.16 110.426 156.043 110.391 155.926 110.352C155.816 110.312 155.703 110.273 155.586 110.234C155.469 110.195 155.348 110.168 155.223 110.152C155.035 110.137 154.891 110.062 154.789 109.93C154.695 109.797 154.648 109.641 154.648 109.461C154.648 109.25 154.703 109.074 154.812 108.934C154.93 108.785 155.059 108.633 155.199 108.477C155.34 108.312 155.465 108.117 155.574 107.891C155.691 107.664 155.75 107.359 155.75 106.977C155.75 106.211 155.715 105.453 155.645 104.703C155.582 103.945 155.551 103.184 155.551 102.418V102.066C155.551 101.902 155.543 101.734 155.527 101.562C155.512 101.391 155.473 101.238 155.41 101.105C155.348 100.965 155.258 100.852 155.141 100.766C155.023 100.68 154.859 100.637 154.648 100.637C154.469 100.746 154.297 100.867 154.133 101C153.969 101.125 153.824 101.273 153.699 101.445C153.645 101.523 153.586 101.652 153.523 101.832C153.461 102.012 153.402 102.219 153.348 102.453C153.293 102.688 153.238 102.938 153.184 103.203C153.137 103.469 153.094 103.723 153.055 103.965C153.016 104.207 152.984 104.43 152.961 104.633C152.938 104.836 152.926 104.988 152.926 105.09C152.926 105.387 152.945 105.688 152.984 105.992C153.031 106.289 153.055 106.586 153.055 106.883C153.055 107.039 153.039 107.191 153.008 107.34C152.984 107.48 152.973 107.629 152.973 107.785C152.973 107.848 152.977 107.91 152.984 107.973C152.992 108.035 153.016 108.098 153.055 108.16C153.141 108.207 153.242 108.266 153.359 108.336C153.484 108.406 153.598 108.488 153.699 108.582C153.809 108.668 153.898 108.762 153.969 108.863C154.047 108.965 154.086 109.07 154.086 109.18C154.086 109.406 154.004 109.59 153.84 109.73C153.676 109.871 153.484 109.941 153.266 109.941C153.211 109.941 153.16 109.938 153.113 109.93C153.066 109.922 153.016 109.918 152.961 109.918C152.883 109.918 152.805 109.934 152.727 109.965C152.656 109.988 152.582 110.016 152.504 110.047C152.426 110.086 152.344 110.117 152.258 110.141C152.18 110.172 152.094 110.188 152 110.188C151.758 110.188 151.523 110.156 151.297 110.094C151.07 110.031 150.836 110 150.594 110C150.523 110 150.461 109.973 150.406 109.918C150.352 109.855 150.305 109.785 150.266 109.707C150.234 109.629 150.211 109.547 150.195 109.461C150.18 109.375 150.172 109.305 150.172 109.25C150.172 109.109 150.199 109.004 150.254 108.934C150.316 108.855 150.391 108.789 150.477 108.734C150.562 108.68 150.656 108.625 150.758 108.57C150.867 108.508 150.965 108.426 151.051 108.324C151.137 108.223 151.207 108.086 151.262 107.914C151.324 107.734 151.355 107.5 151.355 107.211C151.355 107.094 151.34 106.98 151.309 106.871C151.277 106.762 151.242 106.652 151.203 106.543C151.172 106.434 151.141 106.324 151.109 106.215C151.086 106.105 151.074 105.992 151.074 105.875C151.074 105.672 151.098 105.469 151.145 105.266C151.191 105.062 151.215 104.859 151.215 104.656C151.215 104.508 151.188 104.367 151.133 104.234C151.078 104.102 151.051 103.965 151.051 103.824C151.051 103.723 151.078 103.633 151.133 103.555C151.195 103.477 151.227 103.387 151.227 103.285C151.227 103.254 151.219 103.195 151.203 103.109C151.188 103.023 151.168 102.926 151.145 102.816C151.129 102.699 151.113 102.578 151.098 102.453C151.082 102.328 151.074 102.211 151.074 102.102C151.074 101.961 151.09 101.82 151.121 101.68C151.16 101.539 151.18 101.398 151.18 101.258C151.18 101.172 151.156 101.094 151.109 101.023C151.07 100.945 151.016 100.879 150.945 100.824C150.875 100.762 150.797 100.715 150.711 100.684C150.625 100.652 150.543 100.637 150.465 100.637C150.332 100.637 150.203 100.664 150.078 100.719C149.953 100.766 149.836 100.828 149.727 100.906C149.617 100.984 149.512 101.07 149.41 101.164C149.309 101.258 149.211 101.348 149.117 101.434C149.094 101.504 149.07 101.578 149.047 101.656C149.031 101.734 149.004 101.805 148.965 101.867C148.934 101.914 148.883 101.953 148.812 101.984C148.75 102.016 148.684 102.047 148.613 102.078C148.551 102.109 148.492 102.145 148.438 102.184C148.391 102.215 148.367 102.266 148.367 102.336C148.367 102.398 148.387 102.449 148.426 102.488C148.473 102.527 148.52 102.555 148.566 102.57C148.645 102.742 148.684 102.902 148.684 103.051C148.684 103.184 148.668 103.312 148.637 103.438C148.613 103.562 148.582 103.688 148.543 103.812C148.512 103.93 148.48 104.055 148.449 104.188C148.426 104.312 148.414 104.438 148.414 104.562L148.426 105.734C148.426 105.844 148.438 105.918 148.461 105.957C148.492 105.988 148.523 106.016 148.555 106.039C148.594 106.055 148.629 106.082 148.66 106.121C148.699 106.16 148.73 106.242 148.754 106.367C148.777 106.523 148.797 106.684 148.812 106.848C148.836 107.004 148.848 107.16 148.848 107.316C148.848 107.48 148.832 107.645 148.801 107.809C148.77 107.965 148.754 108.125 148.754 108.289C148.754 108.461 148.777 108.59 148.824 108.676C148.879 108.754 148.945 108.812 149.023 108.852C149.102 108.883 149.184 108.906 149.27 108.922C149.355 108.93 149.438 108.949 149.516 108.98C149.594 109.012 149.656 109.066 149.703 109.145C149.758 109.223 149.785 109.348 149.785 109.52C149.785 109.676 149.742 109.805 149.656 109.906C149.57 110 149.453 110.066 149.305 110.105C148.812 110.238 148.301 110.344 147.77 110.422C147.238 110.5 146.719 110.539 146.211 110.539C146.055 110.539 145.922 110.531 145.812 110.516C145.703 110.508 145.613 110.477 145.543 110.422C145.48 110.375 145.434 110.297 145.402 110.188C145.371 110.078 145.355 109.922 145.355 109.719C145.355 109.539 145.426 109.379 145.566 109.238C145.715 109.09 145.871 108.949 146.035 108.816C146.207 108.684 146.363 108.551 146.504 108.418C146.652 108.277 146.727 108.125 146.727 107.961C146.727 107.891 146.723 107.828 146.715 107.773C146.715 107.711 146.715 107.656 146.715 107.609C146.715 107.539 146.723 107.469 146.738 107.398C146.762 107.328 146.805 107.25 146.867 107.164C146.867 106.992 146.848 106.82 146.809 106.648C146.777 106.477 146.742 106.309 146.703 106.145C146.664 105.973 146.625 105.805 146.586 105.641C146.555 105.469 146.539 105.293 146.539 105.113C146.539 104.746 146.57 104.387 146.633 104.035C146.703 103.684 146.738 103.324 146.738 102.957C146.738 102.754 146.73 102.555 146.715 102.359C146.707 102.164 146.695 101.965 146.68 101.762C146.656 101.527 146.629 101.34 146.598 101.199C146.566 101.051 146.516 100.926 146.445 100.824C146.383 100.723 146.289 100.637 146.164 100.566C146.047 100.488 145.879 100.398 145.66 100.297C145.535 100.234 145.422 100.152 145.32 100.051C145.227 99.9492 145.18 99.8242 145.18 99.6758C145.18 99.5117 145.215 99.3984 145.285 99.3359C145.363 99.2656 145.449 99.2148 145.543 99.1836C145.645 99.1445 145.742 99.1094 145.836 99.0781C145.93 99.0469 145.996 98.9844 146.035 98.8906C146.066 98.8203 146.094 98.7812 146.117 98.7734C146.148 98.7578 146.203 98.75 146.281 98.75C146.492 98.75 146.695 98.7852 146.891 98.8555C147.086 98.918 147.273 98.9883 147.453 99.0664C147.633 99.1367 147.805 99.207 147.969 99.2773C148.141 99.3398 148.305 99.3711 148.461 99.3711C148.625 99.3711 148.797 99.3203 148.977 99.2188C149.164 99.1094 149.367 98.9922 149.586 98.8672C149.805 98.7422 150.047 98.6289 150.312 98.5273C150.586 98.418 150.895 98.3633 151.238 98.3633C151.371 98.3633 151.508 98.3945 151.648 98.457C151.789 98.5195 151.926 98.5977 152.059 98.6914C152.191 98.7852 152.312 98.8867 152.422 98.9961C152.539 99.1055 152.637 99.2109 152.715 99.3125C152.902 99.1328 153.121 98.9766 153.371 98.8438C153.621 98.7109 153.883 98.6016 154.156 98.5156C154.43 98.4297 154.707 98.3672 154.988 98.3281C155.27 98.2891 155.539 98.2695 155.797 98.2695C155.992 98.2695 156.168 98.3242 156.324 98.4336C156.48 98.5352 156.617 98.6758 156.734 98.8555C156.859 99.0273 156.965 99.2227 157.051 99.4414C157.145 99.6602 157.227 99.8789 157.297 100.098C157.375 100.316 157.441 100.531 157.496 100.742C157.551 100.945 157.602 101.117 157.648 101.258C157.664 101.297 157.676 101.336 157.684 101.375C157.691 101.414 157.695 101.457 157.695 101.504C157.695 101.613 157.68 101.719 157.648 101.82C157.617 101.922 157.582 102.023 157.543 102.125C157.512 102.219 157.48 102.316 157.449 102.418C157.418 102.52 157.402 102.625 157.402 102.734C157.402 102.844 157.422 102.949 157.461 103.051C157.508 103.152 157.531 103.258 157.531 103.367C157.531 103.484 157.508 103.598 157.461 103.707C157.414 103.809 157.391 103.918 157.391 104.035C157.391 104.191 157.418 104.34 157.473 104.48C157.535 104.621 157.566 104.77 157.566 104.926C157.566 105.043 157.547 105.156 157.508 105.266C157.477 105.367 157.438 105.473 157.391 105.582C157.352 105.691 157.312 105.801 157.273 105.91C157.242 106.012 157.227 106.121 157.227 106.238C157.227 106.277 157.23 106.316 157.238 106.355C157.246 106.387 157.258 106.422 157.273 106.461L157.73 107.609C157.801 107.773 157.918 107.93 158.082 108.078C158.246 108.227 158.414 108.371 158.586 108.512C158.758 108.652 158.91 108.801 159.043 108.957C159.176 109.105 159.242 109.27 159.242 109.449ZM173.023 104.867C173.023 104.977 173.004 105.082 172.965 105.184C172.934 105.277 172.895 105.359 172.848 105.43C172.809 105.5 172.77 105.559 172.73 105.605C172.699 105.652 172.684 105.68 172.684 105.688C172.684 105.766 172.707 105.848 172.754 105.934C172.809 106.02 172.836 106.113 172.836 106.215C172.836 106.262 172.816 106.293 172.777 106.309C172.746 106.324 172.711 106.332 172.672 106.332C172.602 106.332 172.543 106.324 172.496 106.309C172.504 106.457 172.516 106.602 172.531 106.742C172.555 106.883 172.566 107.027 172.566 107.176C172.566 107.402 172.543 107.551 172.496 107.621C172.457 107.684 172.414 107.723 172.367 107.738C172.32 107.754 172.273 107.773 172.227 107.797C172.188 107.812 172.168 107.883 172.168 108.008C172.168 108.078 172.117 108.168 172.016 108.277C171.922 108.387 171.805 108.496 171.664 108.605C171.531 108.715 171.391 108.809 171.242 108.887C171.102 108.965 170.988 109.004 170.902 109.004C170.879 109.004 170.852 108.996 170.82 108.98C170.82 109.043 170.824 109.109 170.832 109.18C170.84 109.25 170.844 109.316 170.844 109.379C170.844 109.48 170.812 109.551 170.75 109.59C170.688 109.621 170.617 109.652 170.539 109.684C170.422 109.738 170.301 109.82 170.176 109.93C170.051 110.031 169.922 110.137 169.789 110.246C169.656 110.355 169.52 110.449 169.379 110.527C169.246 110.613 169.105 110.656 168.957 110.656C168.832 110.656 168.715 110.625 168.605 110.562C168.504 110.5 168.383 110.469 168.242 110.469C168.117 110.469 168.012 110.484 167.926 110.516C167.84 110.555 167.758 110.594 167.68 110.633C167.609 110.68 167.535 110.719 167.457 110.75C167.379 110.789 167.289 110.809 167.188 110.809C166.984 110.809 166.781 110.754 166.578 110.645C166.375 110.543 166.18 110.461 165.992 110.398C165.883 110.359 165.766 110.328 165.641 110.305C165.516 110.289 165.395 110.27 165.277 110.246C165.16 110.223 165.047 110.184 164.938 110.129C164.836 110.082 164.746 110.012 164.668 109.918C164.504 109.715 164.312 109.547 164.094 109.414C163.875 109.281 163.652 109.156 163.426 109.039C163.199 108.922 162.98 108.801 162.77 108.676C162.559 108.543 162.375 108.371 162.219 108.16C162.102 107.996 161.969 107.82 161.82 107.633C161.672 107.438 161.531 107.234 161.398 107.023C161.273 106.812 161.168 106.598 161.082 106.379C160.996 106.16 160.953 105.945 160.953 105.734C160.953 105.578 160.969 105.426 161 105.277C161.031 105.129 161.062 104.98 161.094 104.832C161.133 104.676 161.168 104.523 161.199 104.375C161.23 104.227 161.246 104.074 161.246 103.918V103.789C161.246 103.758 161.234 103.723 161.211 103.684C161.188 103.645 161.16 103.609 161.129 103.578C161.105 103.539 161.078 103.508 161.047 103.484C161.023 103.453 161.008 103.438 161 103.438C160.984 103.438 160.977 103.441 160.977 103.449C160.984 103.379 161.004 103.273 161.035 103.133C161.074 102.984 161.117 102.836 161.164 102.688C161.211 102.531 161.258 102.391 161.305 102.266C161.352 102.133 161.395 102.047 161.434 102.008C161.48 101.969 161.523 101.93 161.562 101.891C161.609 101.844 161.633 101.785 161.633 101.715C161.633 101.645 161.629 101.578 161.621 101.516C161.613 101.445 161.609 101.375 161.609 101.305C161.609 101.211 161.621 101.156 161.645 101.141C161.668 101.117 161.699 101.105 161.738 101.105C161.777 101.105 161.816 101.102 161.855 101.094C161.895 101.078 161.934 101.035 161.973 100.965C162.043 100.824 162.109 100.695 162.172 100.578C162.242 100.453 162.316 100.34 162.395 100.238C162.473 100.137 162.562 100.043 162.664 99.957C162.766 99.8711 162.891 99.7891 163.039 99.7109C163.164 99.6406 163.285 99.5547 163.402 99.4531C163.527 99.3516 163.652 99.25 163.777 99.1484C163.902 99.0469 164.027 98.9609 164.152 98.8906C164.285 98.8203 164.426 98.7852 164.574 98.7852C164.785 98.7852 164.988 98.75 165.184 98.6797C165.387 98.6016 165.59 98.543 165.793 98.5039C166.113 98.457 166.43 98.4141 166.742 98.375C167.062 98.3281 167.387 98.3047 167.715 98.3047C167.895 98.3047 168.113 98.3359 168.371 98.3984C168.629 98.4531 168.891 98.5273 169.156 98.6211C169.43 98.7148 169.684 98.8203 169.918 98.9375C170.16 99.0547 170.352 99.1719 170.492 99.2891V99.3242C170.492 99.4336 170.473 99.5469 170.434 99.6641C170.395 99.7734 170.375 99.8828 170.375 99.9922C170.375 100.008 170.375 100.023 170.375 100.039C170.375 100.055 170.383 100.062 170.398 100.062C170.531 100.062 170.656 100.047 170.773 100.016C170.898 99.9766 171.027 99.957 171.16 99.957C171.176 100.09 171.234 100.18 171.336 100.227C171.438 100.273 171.539 100.316 171.641 100.355C171.734 100.402 171.82 100.488 171.898 100.613C171.984 100.73 172.062 100.867 172.133 101.023C172.203 101.172 172.27 101.32 172.332 101.469C172.402 101.617 172.469 101.738 172.531 101.832C172.594 101.926 172.648 102.039 172.695 102.172C172.75 102.297 172.793 102.43 172.824 102.57C172.863 102.711 172.891 102.852 172.906 102.992C172.922 103.125 172.93 103.25 172.93 103.367C172.93 103.523 172.898 103.656 172.836 103.766C172.781 103.867 172.719 103.961 172.648 104.047C172.578 104.125 172.512 104.203 172.449 104.281C172.395 104.352 172.367 104.434 172.367 104.527C172.367 104.582 172.379 104.633 172.402 104.68C172.426 104.727 172.457 104.77 172.496 104.809C172.512 104.801 172.543 104.793 172.59 104.785C172.645 104.777 172.672 104.754 172.672 104.715V104.703C172.672 104.641 172.645 104.582 172.59 104.527C172.543 104.473 172.52 104.406 172.52 104.328C172.52 104.312 172.527 104.289 172.543 104.258C172.559 104.219 172.578 104.199 172.602 104.199C172.648 104.199 172.695 104.23 172.742 104.293C172.789 104.348 172.832 104.41 172.871 104.48C172.918 104.543 172.953 104.598 172.977 104.645C173 104.691 173.012 104.707 173.012 104.691L173 104.68C173.008 104.719 173.012 104.754 173.012 104.785C173.02 104.809 173.023 104.836 173.023 104.867ZM171.852 104.961C171.852 104.836 171.805 104.762 171.711 104.738C171.617 104.707 171.512 104.688 171.395 104.68C171.277 104.672 171.16 104.66 171.043 104.645C170.934 104.629 170.859 104.57 170.82 104.469V104.352C170.82 104.18 170.797 103.98 170.75 103.754C170.711 103.52 170.66 103.285 170.598 103.051C170.535 102.809 170.469 102.574 170.398 102.348C170.328 102.113 170.262 101.906 170.199 101.727C170.137 101.547 170.086 101.402 170.047 101.293C170.008 101.184 169.988 101.129 169.988 101.129C169.926 101.145 169.875 101.152 169.836 101.152C169.703 101.152 169.586 101.125 169.484 101.07C169.391 101.016 169.281 100.957 169.156 100.895C169.039 100.832 168.891 100.773 168.711 100.719C168.539 100.664 168.309 100.637 168.02 100.637C167.699 100.637 167.383 100.617 167.07 100.578C166.758 100.531 166.441 100.508 166.121 100.508C165.684 100.508 165.273 100.609 164.891 100.812C164.508 101.008 164.172 101.27 163.883 101.598C163.594 101.918 163.367 102.281 163.203 102.688C163.039 103.094 162.957 103.504 162.957 103.918C162.957 104.09 162.961 104.293 162.969 104.527C162.977 104.754 162.996 104.984 163.027 105.219C163.059 105.445 163.109 105.66 163.18 105.863C163.25 106.059 163.348 106.207 163.473 106.309V106.637C163.504 106.668 163.543 106.688 163.59 106.695C163.645 106.695 163.695 106.695 163.742 106.695C163.797 106.695 163.844 106.703 163.883 106.719C163.922 106.727 163.953 106.758 163.977 106.812C164.078 107.102 164.211 107.324 164.375 107.48C164.539 107.629 164.715 107.758 164.902 107.867C165.09 107.969 165.277 108.074 165.465 108.184C165.652 108.285 165.824 108.438 165.98 108.641C166.043 108.633 166.109 108.629 166.18 108.629C166.25 108.621 166.316 108.617 166.379 108.617C166.629 108.617 166.871 108.637 167.105 108.676C167.348 108.707 167.59 108.723 167.832 108.723C168.09 108.723 168.32 108.656 168.523 108.523C168.734 108.391 168.914 108.223 169.062 108.02C169.156 107.887 169.242 107.773 169.32 107.68C169.398 107.586 169.477 107.5 169.555 107.422C169.641 107.336 169.73 107.258 169.824 107.188C169.926 107.109 170.043 107.023 170.176 106.93C170.223 106.898 170.277 106.859 170.34 106.812C170.41 106.766 170.477 106.715 170.539 106.66C170.609 106.598 170.668 106.539 170.715 106.484C170.762 106.422 170.785 106.363 170.785 106.309C170.785 106.238 170.773 106.168 170.75 106.098C170.734 106.027 170.727 105.957 170.727 105.887C170.727 105.809 170.738 105.715 170.762 105.605C170.785 105.496 170.82 105.391 170.867 105.289C170.922 105.188 170.984 105.105 171.055 105.043C171.133 104.973 171.227 104.938 171.336 104.938C171.422 104.938 171.508 104.957 171.594 104.996C171.68 105.035 171.758 105.082 171.828 105.137C171.844 105.059 171.852 105 171.852 104.961ZM187.578 101.445C187.578 101.602 187.547 101.734 187.484 101.844C187.422 101.953 187.352 102.059 187.273 102.16C187.203 102.254 187.129 102.352 187.051 102.453C186.98 102.555 186.934 102.676 186.91 102.816C186.84 102.785 186.766 102.766 186.688 102.758C186.617 102.75 186.543 102.746 186.465 102.746C186.277 102.746 186.09 102.762 185.902 102.793C185.723 102.816 185.543 102.828 185.363 102.828C185.152 102.828 184.977 102.766 184.836 102.641C184.703 102.508 184.594 102.348 184.508 102.16C184.43 101.973 184.375 101.773 184.344 101.562C184.312 101.344 184.297 101.148 184.297 100.977C184.297 100.758 184.332 100.535 184.402 100.309C184.34 100.285 184.285 100.273 184.238 100.273C184.137 100.273 184.062 100.305 184.016 100.367C183.977 100.43 183.918 100.461 183.84 100.461C183.77 100.461 183.707 100.438 183.652 100.391C183.598 100.336 183.531 100.309 183.453 100.309C183.336 100.309 183.188 100.348 183.008 100.426C182.836 100.496 182.668 100.59 182.504 100.707C182.34 100.824 182.195 100.953 182.07 101.094C181.953 101.227 181.895 101.355 181.895 101.48C181.73 101.496 181.574 101.543 181.426 101.621C181.285 101.691 181.148 101.77 181.016 101.855C180.914 101.918 180.828 102.016 180.758 102.148C180.688 102.281 180.621 102.426 180.559 102.582C180.504 102.73 180.445 102.883 180.383 103.039C180.328 103.195 180.262 103.324 180.184 103.426C180.051 103.598 179.934 103.773 179.832 103.953C179.738 104.125 179.691 104.32 179.691 104.539C179.691 104.812 179.734 105.09 179.82 105.371C179.906 105.652 179.949 105.938 179.949 106.227C179.949 106.414 179.934 106.602 179.902 106.789C179.879 106.977 179.867 107.16 179.867 107.34C179.867 107.559 179.906 107.734 179.984 107.867C180.062 108 180.168 108.105 180.301 108.184C180.434 108.254 180.586 108.301 180.758 108.324C180.93 108.348 181.105 108.359 181.285 108.359C181.48 108.359 181.668 108.355 181.848 108.348C182.035 108.332 182.207 108.324 182.363 108.324C182.418 108.387 182.449 108.445 182.457 108.5C182.465 108.555 182.461 108.613 182.445 108.676C182.438 108.73 182.422 108.789 182.398 108.852C182.383 108.906 182.375 108.973 182.375 109.051C182.375 109.082 182.383 109.121 182.398 109.168C182.516 109.168 182.617 109.141 182.703 109.086C182.789 109.031 182.852 108.945 182.891 108.828C182.945 108.844 182.992 108.867 183.031 108.898C183.078 108.93 183.102 108.977 183.102 109.039C183.102 109.086 183.09 109.133 183.066 109.18C183.043 109.219 183.016 109.258 182.984 109.297C182.953 109.336 182.926 109.379 182.902 109.426C182.879 109.465 182.867 109.512 182.867 109.566C182.867 109.598 182.871 109.633 182.879 109.672C182.887 109.703 182.898 109.73 182.914 109.754C182.875 109.816 182.82 109.859 182.75 109.883C182.68 109.906 182.609 109.918 182.539 109.918C182.414 109.918 182.309 109.898 182.223 109.859C182.145 109.82 182.07 109.777 182 109.73C181.938 109.684 181.879 109.641 181.824 109.602C181.77 109.562 181.703 109.543 181.625 109.543C181.594 109.543 181.547 109.551 181.484 109.566C181.422 109.582 181.359 109.602 181.297 109.625C181.234 109.648 181.18 109.68 181.133 109.719C181.086 109.75 181.062 109.781 181.062 109.812C181.062 109.875 181.082 109.93 181.121 109.977C181.168 110.023 181.191 110.078 181.191 110.141C181.191 110.195 181.172 110.238 181.133 110.27C181.094 110.301 181.047 110.32 180.992 110.328C180.938 110.344 180.879 110.352 180.816 110.352C180.762 110.359 180.715 110.363 180.676 110.363C180.371 110.363 180.066 110.328 179.762 110.258C179.465 110.195 179.164 110.164 178.859 110.164C178.719 110.164 178.578 110.195 178.438 110.258C178.297 110.32 178.148 110.352 177.992 110.352C177.906 110.352 177.84 110.332 177.793 110.293C177.754 110.262 177.719 110.223 177.688 110.176C177.656 110.129 177.621 110.086 177.582 110.047C177.543 110.016 177.484 110 177.406 110C177.258 110 177.109 110.016 176.961 110.047C176.82 110.078 176.676 110.109 176.527 110.141C176.387 110.18 176.242 110.211 176.094 110.234C175.953 110.266 175.809 110.281 175.66 110.281C175.582 110.281 175.488 110.27 175.379 110.246C175.27 110.23 175.164 110.199 175.062 110.152C174.961 110.105 174.875 110.047 174.805 109.977C174.734 109.906 174.699 109.82 174.699 109.719C174.699 109.656 174.734 109.574 174.805 109.473C174.883 109.371 174.969 109.273 175.062 109.18C175.156 109.078 175.25 108.992 175.344 108.922C175.438 108.852 175.508 108.816 175.555 108.816C175.68 108.816 175.801 108.82 175.918 108.828C176.043 108.836 176.172 108.84 176.305 108.84C176.516 108.84 176.727 108.809 176.938 108.746C177.156 108.676 177.352 108.578 177.523 108.453C177.703 108.328 177.848 108.172 177.957 107.984C178.066 107.797 178.121 107.586 178.121 107.352C178.121 107.25 178.113 107.152 178.098 107.059C178.082 106.957 178.074 106.855 178.074 106.754C178.074 106.551 178.098 106.348 178.145 106.145C178.191 105.941 178.215 105.738 178.215 105.535C178.215 105.262 178.184 104.984 178.121 104.703C178.066 104.414 178.039 104.125 178.039 103.836C178.039 103.578 178.043 103.324 178.051 103.074C178.066 102.816 178.074 102.559 178.074 102.301C178.074 102.184 178.07 102.012 178.062 101.785C178.055 101.559 178.027 101.332 177.98 101.105C177.941 100.879 177.875 100.68 177.781 100.508C177.695 100.336 177.574 100.25 177.418 100.25C177.246 100.25 177.074 100.27 176.902 100.309C176.73 100.348 176.555 100.367 176.375 100.367C176.242 100.367 176.086 100.359 175.906 100.344C175.727 100.32 175.555 100.281 175.391 100.227C175.227 100.164 175.086 100.078 174.969 99.9688C174.852 99.8594 174.793 99.7148 174.793 99.5352C174.793 99.3398 174.82 99.1836 174.875 99.0664C174.93 98.9414 175 98.8477 175.086 98.7852C175.18 98.7227 175.285 98.6797 175.402 98.6562C175.527 98.6328 175.66 98.6211 175.801 98.6211C175.926 98.6211 176.055 98.625 176.188 98.6328C176.32 98.6406 176.449 98.6445 176.574 98.6445C176.824 98.6445 177.07 98.6328 177.312 98.6094C177.562 98.5781 177.812 98.5625 178.062 98.5625C178.234 98.5625 178.406 98.5703 178.578 98.5859C178.75 98.6016 178.918 98.6367 179.082 98.6914C179.23 98.7383 179.34 98.8281 179.41 98.9609C179.48 99.0859 179.543 99.2148 179.598 99.3477C179.66 99.4805 179.73 99.6016 179.809 99.7109C179.887 99.8125 180.012 99.8633 180.184 99.8633C180.262 99.8633 180.332 99.8438 180.395 99.8047C180.465 99.7578 180.531 99.707 180.594 99.6523C180.656 99.5977 180.719 99.5469 180.781 99.5C180.844 99.4531 180.918 99.4219 181.004 99.4062C181.176 99.3828 181.332 99.3281 181.473 99.2422C181.621 99.1562 181.766 99.0703 181.906 98.9844C182.047 98.8984 182.188 98.8203 182.328 98.75C182.477 98.6797 182.637 98.6445 182.809 98.6445C182.91 98.6445 183.035 98.6328 183.184 98.6094C183.34 98.5859 183.492 98.5547 183.641 98.5156C183.797 98.4688 183.941 98.4141 184.074 98.3516C184.215 98.2891 184.324 98.2188 184.402 98.1406C184.613 98.1562 184.859 98.207 185.141 98.293C185.43 98.3789 185.703 98.4961 185.961 98.6445C186.227 98.7852 186.457 98.9531 186.652 99.1484C186.848 99.3438 186.961 99.5625 186.992 99.8047C187.016 99.9531 187.059 100.094 187.121 100.227C187.184 100.359 187.246 100.492 187.309 100.625C187.379 100.75 187.441 100.883 187.496 101.023C187.551 101.156 187.578 101.297 187.578 101.445ZM199.93 107.551C199.93 107.762 199.895 107.941 199.824 108.09C199.762 108.238 199.676 108.371 199.566 108.488C199.465 108.605 199.344 108.715 199.203 108.816C199.07 108.918 198.934 109.027 198.793 109.145C198.684 109.238 198.586 109.309 198.5 109.355C198.414 109.402 198.328 109.441 198.242 109.473C198.164 109.504 198.078 109.535 197.984 109.566C197.898 109.598 197.797 109.641 197.68 109.695C197.523 109.773 197.391 109.848 197.281 109.918C197.18 109.98 197.074 110.039 196.965 110.094C196.863 110.148 196.75 110.191 196.625 110.223C196.5 110.262 196.344 110.293 196.156 110.316C195.844 110.355 195.527 110.402 195.207 110.457C194.895 110.512 194.582 110.539 194.27 110.539C194.207 110.539 194.141 110.523 194.07 110.492C194.008 110.469 193.934 110.441 193.848 110.41C193.762 110.387 193.664 110.359 193.555 110.328C193.453 110.305 193.328 110.293 193.18 110.293C193.023 110.293 192.898 110.27 192.805 110.223C192.711 110.176 192.625 110.121 192.547 110.059C192.477 109.996 192.402 109.93 192.324 109.859C192.246 109.781 192.145 109.715 192.02 109.66C191.551 109.449 191.152 109.195 190.824 108.898C190.496 108.602 190.215 108.27 189.98 107.902C189.746 107.535 189.551 107.137 189.395 106.707C189.238 106.277 189.105 105.828 188.996 105.359C188.91 105.031 188.867 104.703 188.867 104.375C188.867 103.945 188.969 103.547 189.172 103.18C189.094 102.961 189.055 102.75 189.055 102.547C189.055 102.398 189.098 102.18 189.184 101.891C189.27 101.594 189.379 101.297 189.512 101C189.652 100.703 189.801 100.438 189.957 100.203C190.121 99.9609 190.273 99.8125 190.414 99.7578C190.523 99.7188 190.598 99.6875 190.637 99.6641C190.684 99.6328 190.707 99.5547 190.707 99.4297C190.707 99.3359 190.742 99.2578 190.812 99.1953C190.891 99.1328 190.98 99.082 191.082 99.043C191.191 99.0039 191.297 98.9688 191.398 98.9375C191.508 98.9062 191.598 98.875 191.668 98.8438C191.957 98.7031 192.23 98.5859 192.488 98.4922C192.754 98.3906 193.016 98.3086 193.273 98.2461C193.539 98.1758 193.812 98.125 194.094 98.0938C194.375 98.0625 194.676 98.0469 194.996 98.0469C195.168 98.0469 195.336 98.0703 195.5 98.1172C195.664 98.1641 195.82 98.2266 195.969 98.3047C196.125 98.375 196.277 98.457 196.426 98.5508C196.574 98.6367 196.719 98.7227 196.859 98.8086H196.848C196.965 98.8242 197.074 98.8594 197.176 98.9141C197.285 98.9609 197.398 98.9922 197.516 99.0078C197.625 99.1406 197.766 99.2695 197.938 99.3945C198.117 99.5117 198.289 99.6367 198.453 99.7695C198.625 99.9023 198.77 100.047 198.887 100.203C199.012 100.352 199.074 100.523 199.074 100.719C199.074 100.75 199.07 100.781 199.062 100.812C199.062 100.844 199.059 100.879 199.051 100.918L199.098 100.859C199.129 100.883 199.156 100.922 199.18 100.977C199.211 101.031 199.238 101.094 199.262 101.164C199.285 101.227 199.305 101.293 199.32 101.363C199.336 101.426 199.348 101.477 199.355 101.516C199.418 101.617 199.5 101.699 199.602 101.762C199.711 101.824 199.797 101.91 199.859 102.02C199.781 102.098 199.742 102.199 199.742 102.324C199.742 102.457 199.77 102.59 199.824 102.723C199.879 102.848 199.906 102.977 199.906 103.109C199.906 103.266 199.898 103.418 199.883 103.566C199.867 103.707 199.859 103.855 199.859 104.012C199.859 104.129 199.812 104.219 199.719 104.281C199.633 104.344 199.535 104.398 199.426 104.445C199.324 104.492 199.23 104.539 199.145 104.586C199.059 104.633 199.016 104.699 199.016 104.785C199.016 104.848 198.977 104.879 198.898 104.879C198.828 104.871 198.77 104.867 198.723 104.867C198.379 104.867 198.035 104.824 197.691 104.738C197.355 104.652 197.02 104.609 196.684 104.609C196.316 104.609 195.953 104.637 195.594 104.691C195.234 104.738 194.871 104.762 194.504 104.762C194.23 104.762 193.957 104.754 193.684 104.738C193.418 104.723 193.148 104.715 192.875 104.715C192.805 104.715 192.672 104.73 192.477 104.762C192.281 104.785 192.074 104.82 191.855 104.867C191.645 104.906 191.441 104.957 191.246 105.02C191.051 105.074 190.914 105.129 190.836 105.184C190.828 105.223 190.824 105.277 190.824 105.348C190.824 105.715 190.93 106.094 191.141 106.484C191.359 106.875 191.645 107.23 191.996 107.551C192.348 107.871 192.742 108.137 193.18 108.348C193.617 108.559 194.059 108.664 194.504 108.664C194.762 108.664 195.016 108.676 195.266 108.699C195.523 108.715 195.773 108.77 196.016 108.863C196.227 108.762 196.418 108.645 196.59 108.512C196.77 108.379 196.941 108.238 197.105 108.09C197.27 107.941 197.43 107.789 197.586 107.633C197.742 107.477 197.902 107.32 198.066 107.164C198.098 107.133 198.172 107.105 198.289 107.082C198.414 107.051 198.547 107.027 198.688 107.012C198.828 106.988 198.961 106.973 199.086 106.965C199.219 106.949 199.309 106.941 199.355 106.941C199.535 106.941 199.703 106.969 199.859 107.023C199.906 107.203 199.93 107.379 199.93 107.551ZM198.172 102.793C198.172 102.676 198.152 102.562 198.113 102.453C198.074 102.344 198.043 102.23 198.02 102.113C197.98 101.895 197.961 101.684 197.961 101.48C197.961 101.27 197.93 101.059 197.867 100.848H197.855C197.855 100.895 197.84 100.941 197.809 100.988C197.777 101.027 197.734 101.047 197.68 101.047C197.586 101.047 197.496 101.023 197.41 100.977C197.324 100.93 197.25 100.871 197.188 100.801C196.891 100.668 196.621 100.543 196.379 100.426C196.145 100.309 195.906 100.207 195.664 100.121C195.43 100.027 195.176 99.957 194.902 99.9102C194.637 99.8555 194.328 99.8281 193.977 99.8281C193.945 99.8281 193.914 99.832 193.883 99.8398C193.859 99.8398 193.836 99.8516 193.812 99.875L193.871 100.004L193.777 100.027C193.566 100.066 193.391 100.105 193.25 100.145C193.117 100.176 192.996 100.223 192.887 100.285C192.777 100.348 192.668 100.426 192.559 100.52C192.457 100.605 192.324 100.719 192.16 100.859C192.082 100.93 191.996 100.984 191.902 101.023C191.816 101.055 191.727 101.086 191.633 101.117C191.547 101.141 191.461 101.168 191.375 101.199C191.297 101.23 191.23 101.281 191.176 101.352C191.121 101.547 191.039 101.738 190.93 101.926C190.828 102.105 190.777 102.297 190.777 102.5C190.777 102.617 190.824 102.723 190.918 102.816C191.02 102.902 191.145 102.977 191.293 103.039C191.449 103.102 191.617 103.156 191.797 103.203C191.984 103.25 192.168 103.285 192.348 103.309C192.527 103.332 192.691 103.352 192.84 103.367C192.996 103.375 193.117 103.379 193.203 103.379C193.5 103.379 193.793 103.352 194.082 103.297C194.371 103.234 194.664 103.203 194.961 103.203C195.266 103.203 195.57 103.219 195.875 103.25C196.18 103.273 196.484 103.285 196.789 103.285C196.867 103.285 196.984 103.281 197.141 103.273C197.297 103.266 197.449 103.246 197.598 103.215C197.754 103.176 197.887 103.125 197.996 103.062C198.113 102.992 198.172 102.902 198.172 102.793Z" fill="#FFFDFD"/>
<path d="M28.57 40.68V67.98C28.57 75.6333 27.24 81.4667 24.58 85.48C21.9667 89.4933 17.6733 91.5 11.7 91.5C7.82667 91.5 5.00333 90.73 3.23 89.19C1.41 87.65 0.5 85.8533 0.5 83.8C0.5 81.7467 1.10667 80.16 2.32 79.04C3.53333 77.9667 5.05 77.43 6.87 77.43C8.69 77.43 10.0667 77.92 11 78.9C11.8867 79.9267 12.33 81.0467 12.33 82.26C12.33 83.4733 12.19 84.64 11.91 85.76H9.25C8.50333 87.02 8.41 88.0933 8.97 88.98C9.48333 89.8667 10.44 90.31 11.84 90.31C13.2867 90.31 14.2667 89.4933 14.78 87.86C15.2933 86.2733 15.55 82.96 15.55 77.92V41.94H11V40.68H28.57ZM21.92 35.85C19.4467 35.85 17.6733 35.22 16.6 33.96C15.5733 32.7 15.06 31.1367 15.06 29.27C15.06 27.4033 15.62 25.8633 16.74 24.65C17.9067 23.4367 19.6567 22.83 21.99 22.83C24.3233 22.83 26.0967 23.39 27.31 24.51C28.5233 25.5833 29.13 27.1467 29.13 29.2C29.13 31.2067 28.5467 32.8167 27.38 34.03C26.2133 35.2433 24.3933 35.85 21.92 35.85ZM50.2383 57.55H52.2683V52.16C52.2683 47.7267 52.0116 44.7633 51.4983 43.27C51.0316 41.73 50.0983 40.96 48.6983 40.96C47.8583 40.96 47.0883 41.1933 46.3883 41.66C45.7349 42.08 45.4083 42.6867 45.4083 43.48C45.4083 44.2267 45.5483 44.9967 45.8283 45.79H47.5783C47.9516 46.77 48.1383 47.96 48.1383 49.36C48.1383 50.7133 47.5549 51.9033 46.3883 52.93C45.2216 53.91 43.7516 54.4 41.9783 54.4C37.9649 54.4 35.9583 52.4633 35.9583 48.59C35.9583 42.85 40.8349 39.98 50.5883 39.98C56.1416 39.98 59.9683 40.9367 62.0683 42.85C64.215 44.7167 65.2883 48.17 65.2883 53.21V67.42C65.2883 69.8467 65.9649 71.06 67.3183 71.06C68.9049 71.06 69.8383 68.6567 70.1183 63.85L71.1683 63.92C70.9816 68.0267 70.2116 70.85 68.8583 72.39C67.5049 73.93 65.2883 74.7 62.2083 74.7C56.6083 74.7 53.3883 72.9733 52.5483 69.52C51.9416 71.2933 51.0316 72.6 49.8183 73.44C48.6049 74.28 46.8316 74.7 44.4983 74.7C37.5916 74.7 34.1383 71.8767 34.1383 66.23C34.1383 62.9167 35.4449 60.6533 38.0583 59.44C40.7183 58.18 44.7783 57.55 50.2383 57.55ZM47.4383 66.16C47.4383 68.5867 47.5549 70.15 47.7883 70.85C48.0683 71.55 48.5583 71.9 49.2583 71.9C50.0049 71.9 50.6816 71.3167 51.2883 70.15C51.9416 68.9367 52.2683 67.28 52.2683 65.18V58.67H51.7783C48.8849 58.67 47.4383 60.7933 47.4383 65.04V66.16ZM112.123 74H96.1627L95.3927 68.89C94.646 70.7567 93.526 72.2033 92.0327 73.23C90.586 74.21 88.416 74.7 85.5227 74.7C78.2893 74.7 74.6727 70.8033 74.6727 63.01V41.94H70.7527V40.68H87.6927V64.69C87.6927 67.49 87.8793 69.3333 88.2527 70.22C88.6727 71.1067 89.466 71.55 90.6327 71.55C91.846 71.55 92.9193 70.8267 93.8527 69.38C94.786 67.9333 95.2527 65.9267 95.2527 63.36V41.94H92.0327V40.68H108.273V72.74H112.123V74ZM113.695 40.68H130.565V47.12C131.312 44.9733 132.455 43.2467 133.995 41.94C135.535 40.6333 137.869 39.98 140.995 39.98C148.229 39.98 151.845 43.8767 151.845 51.67V72.74H155.765V74H135.955V72.74H138.825V49.99C138.825 47.19 138.639 45.3933 138.265 44.6C137.892 43.76 137.215 43.34 136.235 43.34C134.742 43.34 133.412 44.32 132.245 46.28C131.125 48.24 130.565 50.62 130.565 53.42V72.74H133.575V74H113.695V72.74H117.545V41.94H113.695V40.68ZM159.848 63.99V41.94H155.998V40.68H159.848V31.65L172.868 28.43V40.68H181.968V41.94H172.868V65.53C172.868 67.7233 173.078 69.3333 173.498 70.36C173.965 71.3867 174.898 71.9 176.298 71.9C177.698 71.9 178.912 71.2 179.938 69.8C181.012 68.4 181.712 66.4867 182.038 64.06L183.228 64.2C182.855 67.42 181.828 69.9867 180.148 71.9C178.468 73.7667 175.692 74.7 171.818 74.7C167.945 74.7 164.982 73.93 162.928 72.39C160.875 70.85 159.848 68.05 159.848 63.99ZM192.367 74.7C190.361 74.7 188.844 74.1167 187.817 72.95C186.837 71.7367 186.347 70.29 186.347 68.61C186.347 66.8833 186.861 65.4367 187.887 64.27C188.961 63.1033 190.454 62.52 192.367 62.52C194.281 62.52 195.797 63.01 196.917 63.99C198.037 64.97 198.597 66.44 198.597 68.4C198.597 70.36 198.061 71.9 196.987 73.02C195.961 74.14 194.421 74.7 192.367 74.7Z" fill="#F86624"/>
</svg>
